<?xml version="1.0" standalone="no"?>
 <!DOCTYPE svg PUBLIC "-//W3C//DTD SVG 1.1//EN" 
 "http://www.w3.org/Graphics/SVG/1.1/DTD/svg11.dtd"> 
<svg
  xmlns:svg="http://www.w3.org/2000/svg"
  xmlns="http://www.w3.org/2000/svg"
  xmlns:xlink="http://www.w3.org/1999/xlink"
  version="1.1"
  width="419.9890mm" height="297.0022mm" viewBox="0.0000 0.0000 419.9890 297.0022">
<title>SVG Image created as hackboard-User_Eco1.svg date 2025/05/28 00:26:23 </title>
  <desc>Image generated by PCBNEW </desc>
<g style="fill:#000000; fill-opacity:1.0000;stroke:#000000; stroke-opacity:1.0000;
stroke-linecap:round; stroke-linejoin:round;"
 transform="translate(0 0) scale(1 1)">
</g>
<g style="fill:none; 
stroke:#000000; stroke-width:0.1000; stroke-opacity:1; 
stroke-linecap:round; stroke-linejoin:round;">
<path d="M350.4315 58.2940
L351.2315 58.2940
" />
<path d="M350.4315 61.3940
L350.4315 58.2940
" />
<path d="M350.4315 67.1940
L351.2315 67.1940
" />
<path d="M350.4315 70.2940
L350.4315 67.1940
" />
<path d="M351.2315 57.2940
L365.2315 57.2940
" />
<path d="M351.2315 58.2940
L351.2315 57.2940
" />
<path d="M351.2315 61.3940
L350.4315 61.3940
" />
<path d="M351.2315 67.1940
L351.2315 61.3940
" />
<path d="M351.2315 70.2940
L350.4315 70.2940
" />
<path d="M351.2315 71.2940
L351.2315 70.2940
" />
<path d="M365.2315 57.2940
L365.2315 58.2940
" />
<path d="M365.2315 58.2940
L366.0315 58.2940
" />
<path d="M365.2315 61.3940
L365.2315 67.1940
" />
<path d="M365.2315 67.1940
L366.0315 67.1940
" />
<path d="M365.2315 70.2940
L365.2315 71.2940
" />
<path d="M365.2315 71.2940
L351.2315 71.2940
" />
<path d="M366.0315 58.2940
L366.0315 61.3940
" />
<path d="M366.0315 61.3940
L365.2315 61.3940
" />
<path d="M366.0315 67.1940
L366.0315 70.2940
" />
<path d="M366.0315 70.2940
L365.2315 70.2940
" />
<path d="M312.3315 86.8690
L313.1315 86.8690
" />
<path d="M312.3315 89.9690
L312.3315 86.8690
" />
<path d="M312.3315 95.7690
L313.1315 95.7690
" />
<path d="M312.3315 98.8690
L312.3315 95.7690
" />
<path d="M313.1315 85.8690
L327.1315 85.8690
" />
<path d="M313.1315 86.8690
L313.1315 85.8690
" />
<path d="M313.1315 89.9690
L312.3315 89.9690
" />
<path d="M313.1315 95.7690
L313.1315 89.9690
" />
<path d="M313.1315 98.8690
L312.3315 98.8690
" />
<path d="M313.1315 99.8690
L313.1315 98.8690
" />
<path d="M327.1315 85.8690
L327.1315 86.8690
" />
<path d="M327.1315 86.8690
L327.9315 86.8690
" />
<path d="M327.1315 89.9690
L327.1315 95.7690
" />
<path d="M327.1315 95.7690
L327.9315 95.7690
" />
<path d="M327.1315 98.8690
L327.1315 99.8690
" />
<path d="M327.1315 99.8690
L313.1315 99.8690
" />
<path d="M327.9315 86.8690
L327.9315 89.9690
" />
<path d="M327.9315 89.9690
L327.1315 89.9690
" />
<path d="M327.9315 95.7690
L327.9315 98.8690
" />
<path d="M327.9315 98.8690
L327.1315 98.8690
" />
<path d="M75.5438 35.0762
L76.3438 35.0762
" />
<path d="M75.5438 38.1762
L75.5438 35.0762
" />
<path d="M75.5438 43.9762
L76.3438 43.9762
" />
<path d="M75.5438 47.0762
L75.5438 43.9762
" />
<path d="M76.3438 34.0762
L90.3438 34.0762
" />
<path d="M76.3438 35.0762
L76.3438 34.0762
" />
<path d="M76.3438 38.1762
L75.5438 38.1762
" />
<path d="M76.3438 43.9762
L76.3438 38.1762
" />
<path d="M76.3438 47.0762
L75.5438 47.0762
" />
<path d="M76.3438 48.0762
L76.3438 47.0762
" />
<path d="M90.3438 34.0762
L90.3438 35.0762
" />
<path d="M90.3438 35.0762
L91.1438 35.0762
" />
<path d="M90.3438 38.1762
L90.3438 43.9762
" />
<path d="M90.3438 43.9762
L91.1438 43.9762
" />
<path d="M90.3438 47.0762
L90.3438 48.0762
" />
<path d="M90.3438 48.0762
L76.3438 48.0762
" />
<path d="M91.1438 35.0762
L91.1438 38.1762
" />
<path d="M91.1438 38.1762
L90.3438 38.1762
" />
<path d="M91.1438 43.9762
L91.1438 47.0762
" />
<path d="M91.1438 47.0762
L90.3438 47.0762
" />
<path d="M350.4315 39.2440
L351.2315 39.2440
" />
<path d="M350.4315 42.3440
L350.4315 39.2440
" />
<path d="M350.4315 48.1440
L351.2315 48.1440
" />
<path d="M350.4315 51.2440
L350.4315 48.1440
" />
<path d="M351.2315 38.2440
L365.2315 38.2440
" />
<path d="M351.2315 39.2440
L351.2315 38.2440
" />
<path d="M351.2315 42.3440
L350.4315 42.3440
" />
<path d="M351.2315 48.1440
L351.2315 42.3440
" />
<path d="M351.2315 51.2440
L350.4315 51.2440
" />
<path d="M351.2315 52.2440
L351.2315 51.2440
" />
<path d="M365.2315 38.2440
L365.2315 39.2440
" />
<path d="M365.2315 39.2440
L366.0315 39.2440
" />
<path d="M365.2315 42.3440
L365.2315 48.1440
" />
<path d="M365.2315 48.1440
L366.0315 48.1440
" />
<path d="M365.2315 51.2440
L365.2315 52.2440
" />
<path d="M365.2315 52.2440
L351.2315 52.2440
" />
<path d="M366.0315 39.2440
L366.0315 42.3440
" />
<path d="M366.0315 42.3440
L365.2315 42.3440
" />
<path d="M366.0315 48.1440
L366.0315 51.2440
" />
<path d="M366.0315 51.2440
L365.2315 51.2440
" />
<path d="M151.7438 20.7887
L152.5438 20.7887
" />
<path d="M151.7438 23.8887
L151.7438 20.7887
" />
<path d="M151.7438 29.6887
L152.5438 29.6887
" />
<path d="M151.7438 32.7887
L151.7438 29.6887
" />
<path d="M152.5438 19.7887
L166.5438 19.7887
" />
<path d="M152.5438 20.7887
L152.5438 19.7887
" />
<path d="M152.5438 23.8887
L151.7438 23.8887
" />
<path d="M152.5438 29.6887
L152.5438 23.8887
" />
<path d="M152.5438 32.7887
L151.7438 32.7887
" />
<path d="M152.5438 33.7887
L152.5438 32.7887
" />
<path d="M166.5438 19.7887
L166.5438 20.7887
" />
<path d="M166.5438 20.7887
L167.3438 20.7887
" />
<path d="M166.5438 23.8887
L166.5438 29.6887
" />
<path d="M166.5438 29.6887
L167.3438 29.6887
" />
<path d="M166.5438 32.7887
L166.5438 33.7887
" />
<path d="M166.5438 33.7887
L152.5438 33.7887
" />
<path d="M167.3438 20.7887
L167.3438 23.8887
" />
<path d="M167.3438 23.8887
L166.5438 23.8887
" />
<path d="M167.3438 29.6887
L167.3438 32.7887
" />
<path d="M167.3438 32.7887
L166.5438 32.7887
" />
<path d="M369.4815 20.1940
L370.2815 20.1940
" />
<path d="M369.4815 23.2940
L369.4815 20.1940
" />
<path d="M369.4815 29.0940
L370.2815 29.0940
" />
<path d="M369.4815 32.1940
L369.4815 29.0940
" />
<path d="M370.2815 19.1940
L384.2815 19.1940
" />
<path d="M370.2815 20.1940
L370.2815 19.1940
" />
<path d="M370.2815 23.2940
L369.4815 23.2940
" />
<path d="M370.2815 29.0940
L370.2815 23.2940
" />
<path d="M370.2815 32.1940
L369.4815 32.1940
" />
<path d="M370.2815 33.1940
L370.2815 32.1940
" />
<path d="M384.2815 19.1940
L384.2815 20.1940
" />
<path d="M384.2815 20.1940
L385.0815 20.1940
" />
<path d="M384.2815 23.2940
L384.2815 29.0940
" />
<path d="M384.2815 29.0940
L385.0815 29.0940
" />
<path d="M384.2815 32.1940
L384.2815 33.1940
" />
<path d="M384.2815 33.1940
L370.2815 33.1940
" />
<path d="M385.0815 20.1940
L385.0815 23.2940
" />
<path d="M385.0815 23.2940
L384.2815 23.2940
" />
<path d="M385.0815 29.0940
L385.0815 32.1940
" />
<path d="M385.0815 32.1940
L384.2815 32.1940
" />
<path d="M113.6438 73.1762
L114.4438 73.1762
" />
<path d="M113.6438 76.2762
L113.6438 73.1762
" />
<path d="M113.6438 82.0762
L114.4438 82.0762
" />
<path d="M113.6438 85.1762
L113.6438 82.0762
" />
<path d="M114.4438 72.1762
L128.4438 72.1762
" />
<path d="M114.4438 73.1762
L114.4438 72.1762
" />
<path d="M114.4438 76.2762
L113.6438 76.2762
" />
<path d="M114.4438 82.0762
L114.4438 76.2762
" />
<path d="M114.4438 85.1762
L113.6438 85.1762
" />
<path d="M114.4438 86.1762
L114.4438 85.1762
" />
<path d="M128.4438 72.1762
L128.4438 73.1762
" />
<path d="M128.4438 73.1762
L129.2438 73.1762
" />
<path d="M128.4438 76.2762
L128.4438 82.0762
" />
<path d="M128.4438 82.0762
L129.2438 82.0762
" />
<path d="M128.4438 85.1762
L128.4438 86.1762
" />
<path d="M128.4438 86.1762
L114.4438 86.1762
" />
<path d="M129.2438 73.1762
L129.2438 76.2762
" />
<path d="M129.2438 76.2762
L128.4438 76.2762
" />
<path d="M129.2438 82.0762
L129.2438 85.1762
" />
<path d="M129.2438 85.1762
L128.4438 85.1762
" />
<path d="M388.5315 96.3940
L389.3315 96.3940
" />
<path d="M388.5315 99.4940
L388.5315 96.3940
" />
<path d="M388.5315 105.2940
L389.3315 105.2940
" />
<path d="M388.5315 108.3940
L388.5315 105.2940
" />
<path d="M389.3315 95.3940
L403.3315 95.3940
" />
<path d="M389.3315 96.3940
L389.3315 95.3940
" />
<path d="M389.3315 99.4940
L388.5315 99.4940
" />
<path d="M389.3315 105.2940
L389.3315 99.4940
" />
<path d="M389.3315 108.3940
L388.5315 108.3940
" />
<path d="M389.3315 109.3940
L389.3315 108.3940
" />
<path d="M403.3315 95.3940
L403.3315 96.3940
" />
<path d="M403.3315 96.3940
L404.1315 96.3940
" />
<path d="M403.3315 99.4940
L403.3315 105.2940
" />
<path d="M403.3315 105.2940
L404.1315 105.2940
" />
<path d="M403.3315 108.3940
L403.3315 109.3940
" />
<path d="M403.3315 109.3940
L389.3315 109.3940
" />
<path d="M404.1315 96.3940
L404.1315 99.4940
" />
<path d="M404.1315 99.4940
L403.3315 99.4940
" />
<path d="M404.1315 105.2940
L404.1315 108.3940
" />
<path d="M404.1315 108.3940
L403.3315 108.3940
" />
<path d="M255.1815 20.1940
L255.9815 20.1940
" />
<path d="M255.1815 23.2940
L255.1815 20.1940
" />
<path d="M255.1815 29.0940
L255.9815 29.0940
" />
<path d="M255.1815 32.1940
L255.1815 29.0940
" />
<path d="M255.9815 19.1940
L269.9815 19.1940
" />
<path d="M255.9815 20.1940
L255.9815 19.1940
" />
<path d="M255.9815 23.2940
L255.1815 23.2940
" />
<path d="M255.9815 29.0940
L255.9815 23.2940
" />
<path d="M255.9815 32.1940
L255.1815 32.1940
" />
<path d="M255.9815 33.1940
L255.9815 32.1940
" />
<path d="M269.9815 19.1940
L269.9815 20.1940
" />
<path d="M269.9815 20.1940
L270.7815 20.1940
" />
<path d="M269.9815 23.2940
L269.9815 29.0940
" />
<path d="M269.9815 29.0940
L270.7815 29.0940
" />
<path d="M269.9815 32.1940
L269.9815 33.1940
" />
<path d="M269.9815 33.1940
L255.9815 33.1940
" />
<path d="M270.7815 20.1940
L270.7815 23.2940
" />
<path d="M270.7815 23.2940
L269.9815 23.2940
" />
<path d="M270.7815 29.0940
L270.7815 32.1940
" />
<path d="M270.7815 32.1940
L269.9815 32.1940
" />
<path d="M369.4815 58.2940
L370.2815 58.2940
" />
<path d="M369.4815 61.3940
L369.4815 58.2940
" />
<path d="M369.4815 67.1940
L370.2815 67.1940
" />
<path d="M369.4815 70.2940
L369.4815 67.1940
" />
<path d="M370.2815 57.2940
L384.2815 57.2940
" />
<path d="M370.2815 58.2940
L370.2815 57.2940
" />
<path d="M370.2815 61.3940
L369.4815 61.3940
" />
<path d="M370.2815 67.1940
L370.2815 61.3940
" />
<path d="M370.2815 70.2940
L369.4815 70.2940
" />
<path d="M370.2815 71.2940
L370.2815 70.2940
" />
<path d="M384.2815 57.2940
L384.2815 58.2940
" />
<path d="M384.2815 58.2940
L385.0815 58.2940
" />
<path d="M384.2815 61.3940
L384.2815 67.1940
" />
<path d="M384.2815 67.1940
L385.0815 67.1940
" />
<path d="M384.2815 70.2940
L384.2815 71.2940
" />
<path d="M384.2815 71.2940
L370.2815 71.2940
" />
<path d="M385.0815 58.2940
L385.0815 61.3940
" />
<path d="M385.0815 61.3940
L384.2815 61.3940
" />
<path d="M385.0815 67.1940
L385.0815 70.2940
" />
<path d="M385.0815 70.2940
L384.2815 70.2940
" />
<path d="M274.2315 20.1940
L275.0315 20.1940
" />
<path d="M274.2315 23.2940
L274.2315 20.1940
" />
<path d="M274.2315 29.0940
L275.0315 29.0940
" />
<path d="M274.2315 32.1940
L274.2315 29.0940
" />
<path d="M275.0315 19.1940
L289.0315 19.1940
" />
<path d="M275.0315 20.1940
L275.0315 19.1940
" />
<path d="M275.0315 23.2940
L274.2315 23.2940
" />
<path d="M275.0315 29.0940
L275.0315 23.2940
" />
<path d="M275.0315 32.1940
L274.2315 32.1940
" />
<path d="M275.0315 33.1940
L275.0315 32.1940
" />
<path d="M289.0315 19.1940
L289.0315 20.1940
" />
<path d="M289.0315 20.1940
L289.8315 20.1940
" />
<path d="M289.0315 23.2940
L289.0315 29.0940
" />
<path d="M289.0315 29.0940
L289.8315 29.0940
" />
<path d="M289.0315 32.1940
L289.0315 33.1940
" />
<path d="M289.0315 33.1940
L275.0315 33.1940
" />
<path d="M289.8315 20.1940
L289.8315 23.2940
" />
<path d="M289.8315 23.2940
L289.0315 23.2940
" />
<path d="M289.8315 29.0940
L289.8315 32.1940
" />
<path d="M289.8315 32.1940
L289.0315 32.1940
" />
<path d="M37.4438 39.8387
L38.2438 39.8387
" />
<path d="M37.4438 42.9387
L37.4438 39.8387
" />
<path d="M37.4438 48.7387
L38.2438 48.7387
" />
<path d="M37.4438 51.8387
L37.4438 48.7387
" />
<path d="M38.2438 38.8387
L52.2438 38.8387
" />
<path d="M38.2438 39.8387
L38.2438 38.8387
" />
<path d="M38.2438 42.9387
L37.4438 42.9387
" />
<path d="M38.2438 48.7387
L38.2438 42.9387
" />
<path d="M38.2438 51.8387
L37.4438 51.8387
" />
<path d="M38.2438 52.8387
L38.2438 51.8387
" />
<path d="M52.2438 38.8387
L52.2438 39.8387
" />
<path d="M52.2438 39.8387
L53.0438 39.8387
" />
<path d="M52.2438 42.9387
L52.2438 48.7387
" />
<path d="M52.2438 48.7387
L53.0438 48.7387
" />
<path d="M52.2438 51.8387
L52.2438 52.8387
" />
<path d="M52.2438 52.8387
L38.2438 52.8387
" />
<path d="M53.0438 39.8387
L53.0438 42.9387
" />
<path d="M53.0438 42.9387
L52.2438 42.9387
" />
<path d="M53.0438 48.7387
L53.0438 51.8387
" />
<path d="M53.0438 51.8387
L52.2438 51.8387
" />
<path d="M135.0332 127.4096
L145.6853 133.5596
" />
<path d="M138.4082 121.5639
L135.0332 127.4096
" />
<path d="M145.6853 133.5596
L149.0603 127.7139
" />
<path d="M146.9712 106.7324
L157.6233 112.8824
" />
<path d="M149.0603 127.7139
L138.4082 121.5639
" />
<path d="M150.3462 100.8867
L146.9712 106.7324
" />
<path d="M157.6233 112.8824
L160.9983 107.0367
" />
<path d="M160.9983 107.0367
L150.3462 100.8867
" />
<path d="M75.5438 73.1762
L76.3438 73.1762
" />
<path d="M75.5438 76.2762
L75.5438 73.1762
" />
<path d="M75.5438 82.0762
L76.3438 82.0762
" />
<path d="M75.5438 85.1762
L75.5438 82.0762
" />
<path d="M76.3438 72.1762
L90.3438 72.1762
" />
<path d="M76.3438 73.1762
L76.3438 72.1762
" />
<path d="M76.3438 76.2762
L75.5438 76.2762
" />
<path d="M76.3438 82.0762
L76.3438 76.2762
" />
<path d="M76.3438 85.1762
L75.5438 85.1762
" />
<path d="M76.3438 86.1762
L76.3438 85.1762
" />
<path d="M90.3438 72.1762
L90.3438 73.1762
" />
<path d="M90.3438 73.1762
L91.1438 73.1762
" />
<path d="M90.3438 76.2762
L90.3438 82.0762
" />
<path d="M90.3438 82.0762
L91.1438 82.0762
" />
<path d="M90.3438 85.1762
L90.3438 86.1762
" />
<path d="M90.3438 86.1762
L76.3438 86.1762
" />
<path d="M91.1438 73.1762
L91.1438 76.2762
" />
<path d="M91.1438 76.2762
L90.3438 76.2762
" />
<path d="M91.1438 82.0762
L91.1438 85.1762
" />
<path d="M91.1438 85.1762
L90.3438 85.1762
" />
<path d="M56.4938 58.8887
L57.2938 58.8887
" />
<path d="M56.4938 61.9887
L56.4938 58.8887
" />
<path d="M56.4938 67.7887
L57.2938 67.7887
" />
<path d="M56.4938 70.8887
L56.4938 67.7887
" />
<path d="M57.2938 57.8887
L71.2938 57.8887
" />
<path d="M57.2938 58.8887
L57.2938 57.8887
" />
<path d="M57.2938 61.9887
L56.4938 61.9887
" />
<path d="M57.2938 67.7887
L57.2938 61.9887
" />
<path d="M57.2938 70.8887
L56.4938 70.8887
" />
<path d="M57.2938 71.8887
L57.2938 70.8887
" />
<path d="M71.2938 57.8887
L71.2938 58.8887
" />
<path d="M71.2938 58.8887
L72.0938 58.8887
" />
<path d="M71.2938 61.9887
L71.2938 67.7887
" />
<path d="M71.2938 67.7887
L72.0938 67.7887
" />
<path d="M71.2938 70.8887
L71.2938 71.8887
" />
<path d="M71.2938 71.8887
L57.2938 71.8887
" />
<path d="M72.0938 58.8887
L72.0938 61.9887
" />
<path d="M72.0938 61.9887
L71.2938 61.9887
" />
<path d="M72.0938 67.7887
L72.0938 70.8887
" />
<path d="M72.0938 70.8887
L71.2938 70.8887
" />
<path d="M56.4938 77.9387
L57.2938 77.9387
" />
<path d="M56.4938 81.0387
L56.4938 77.9387
" />
<path d="M56.4938 86.8387
L57.2938 86.8387
" />
<path d="M56.4938 89.9387
L56.4938 86.8387
" />
<path d="M57.2938 76.9387
L71.2938 76.9387
" />
<path d="M57.2938 77.9387
L57.2938 76.9387
" />
<path d="M57.2938 81.0387
L56.4938 81.0387
" />
<path d="M57.2938 86.8387
L57.2938 81.0387
" />
<path d="M57.2938 89.9387
L56.4938 89.9387
" />
<path d="M57.2938 90.9387
L57.2938 89.9387
" />
<path d="M71.2938 76.9387
L71.2938 77.9387
" />
<path d="M71.2938 77.9387
L72.0938 77.9387
" />
<path d="M71.2938 81.0387
L71.2938 86.8387
" />
<path d="M71.2938 86.8387
L72.0938 86.8387
" />
<path d="M71.2938 89.9387
L71.2938 90.9387
" />
<path d="M71.2938 90.9387
L57.2938 90.9387
" />
<path d="M72.0938 77.9387
L72.0938 81.0387
" />
<path d="M72.0938 81.0387
L71.2938 81.0387
" />
<path d="M72.0938 86.8387
L72.0938 89.9387
" />
<path d="M72.0938 89.9387
L71.2938 89.9387
" />
<path d="M255.1815 39.2440
L255.9815 39.2440
" />
<path d="M255.1815 42.3440
L255.1815 39.2440
" />
<path d="M255.1815 48.1440
L255.9815 48.1440
" />
<path d="M255.1815 51.2440
L255.1815 48.1440
" />
<path d="M255.9815 38.2440
L269.9815 38.2440
" />
<path d="M255.9815 39.2440
L255.9815 38.2440
" />
<path d="M255.9815 42.3440
L255.1815 42.3440
" />
<path d="M255.9815 48.1440
L255.9815 42.3440
" />
<path d="M255.9815 51.2440
L255.1815 51.2440
" />
<path d="M255.9815 52.2440
L255.9815 51.2440
" />
<path d="M269.9815 38.2440
L269.9815 39.2440
" />
<path d="M269.9815 39.2440
L270.7815 39.2440
" />
<path d="M269.9815 42.3440
L269.9815 48.1440
" />
<path d="M269.9815 48.1440
L270.7815 48.1440
" />
<path d="M269.9815 51.2440
L269.9815 52.2440
" />
<path d="M269.9815 52.2440
L255.9815 52.2440
" />
<path d="M270.7815 39.2440
L270.7815 42.3440
" />
<path d="M270.7815 42.3440
L269.9815 42.3440
" />
<path d="M270.7815 48.1440
L270.7815 51.2440
" />
<path d="M270.7815 51.2440
L269.9815 51.2440
" />
<path d="M113.6438 16.0262
L114.4438 16.0262
" />
<path d="M113.6438 19.1262
L113.6438 16.0262
" />
<path d="M113.6438 24.9262
L114.4438 24.9262
" />
<path d="M113.6438 28.0262
L113.6438 24.9262
" />
<path d="M114.4438 15.0262
L128.4438 15.0262
" />
<path d="M114.4438 16.0262
L114.4438 15.0262
" />
<path d="M114.4438 19.1262
L113.6438 19.1262
" />
<path d="M114.4438 24.9262
L114.4438 19.1262
" />
<path d="M114.4438 28.0262
L113.6438 28.0262
" />
<path d="M114.4438 29.0262
L114.4438 28.0262
" />
<path d="M128.4438 15.0262
L128.4438 16.0262
" />
<path d="M128.4438 16.0262
L129.2438 16.0262
" />
<path d="M128.4438 19.1262
L128.4438 24.9262
" />
<path d="M128.4438 24.9262
L129.2438 24.9262
" />
<path d="M128.4438 28.0262
L128.4438 29.0262
" />
<path d="M128.4438 29.0262
L114.4438 29.0262
" />
<path d="M129.2438 16.0262
L129.2438 19.1262
" />
<path d="M129.2438 19.1262
L128.4438 19.1262
" />
<path d="M129.2438 24.9262
L129.2438 28.0262
" />
<path d="M129.2438 28.0262
L128.4438 28.0262
" />
<path d="M312.3315 29.7190
L313.1315 29.7190
" />
<path d="M312.3315 32.8190
L312.3315 29.7190
" />
<path d="M312.3315 38.6190
L313.1315 38.6190
" />
<path d="M312.3315 41.7190
L312.3315 38.6190
" />
<path d="M313.1315 28.7190
L327.1315 28.7190
" />
<path d="M313.1315 29.7190
L313.1315 28.7190
" />
<path d="M313.1315 32.8190
L312.3315 32.8190
" />
<path d="M313.1315 38.6190
L313.1315 32.8190
" />
<path d="M313.1315 41.7190
L312.3315 41.7190
" />
<path d="M313.1315 42.7190
L313.1315 41.7190
" />
<path d="M327.1315 28.7190
L327.1315 29.7190
" />
<path d="M327.1315 29.7190
L327.9315 29.7190
" />
<path d="M327.1315 32.8190
L327.1315 38.6190
" />
<path d="M327.1315 38.6190
L327.9315 38.6190
" />
<path d="M327.1315 41.7190
L327.1315 42.7190
" />
<path d="M327.1315 42.7190
L313.1315 42.7190
" />
<path d="M327.9315 29.7190
L327.9315 32.8190
" />
<path d="M327.9315 32.8190
L327.1315 32.8190
" />
<path d="M327.9315 38.6190
L327.9315 41.7190
" />
<path d="M327.9315 41.7190
L327.1315 41.7190
" />
<path d="M113.6438 54.1262
L114.4438 54.1262
" />
<path d="M113.6438 57.2262
L113.6438 54.1262
" />
<path d="M113.6438 63.0262
L114.4438 63.0262
" />
<path d="M113.6438 66.1262
L113.6438 63.0262
" />
<path d="M114.4438 53.1262
L128.4438 53.1262
" />
<path d="M114.4438 54.1262
L114.4438 53.1262
" />
<path d="M114.4438 57.2262
L113.6438 57.2262
" />
<path d="M114.4438 63.0262
L114.4438 57.2262
" />
<path d="M114.4438 66.1262
L113.6438 66.1262
" />
<path d="M114.4438 67.1262
L114.4438 66.1262
" />
<path d="M128.4438 53.1262
L128.4438 54.1262
" />
<path d="M128.4438 54.1262
L129.2438 54.1262
" />
<path d="M128.4438 57.2262
L128.4438 63.0262
" />
<path d="M128.4438 63.0262
L129.2438 63.0262
" />
<path d="M128.4438 66.1262
L128.4438 67.1262
" />
<path d="M128.4438 67.1262
L114.4438 67.1262
" />
<path d="M129.2438 54.1262
L129.2438 57.2262
" />
<path d="M129.2438 57.2262
L128.4438 57.2262
" />
<path d="M129.2438 63.0262
L129.2438 66.1262
" />
<path d="M129.2438 66.1262
L128.4438 66.1262
" />
<path d="M151.7438 77.9387
L152.5438 77.9387
" />
<path d="M151.7438 81.0387
L151.7438 77.9387
" />
<path d="M151.7438 86.8387
L152.5438 86.8387
" />
<path d="M151.7438 89.9387
L151.7438 86.8387
" />
<path d="M152.5438 76.9387
L166.5438 76.9387
" />
<path d="M152.5438 77.9387
L152.5438 76.9387
" />
<path d="M152.5438 81.0387
L151.7438 81.0387
" />
<path d="M152.5438 86.8387
L152.5438 81.0387
" />
<path d="M152.5438 89.9387
L151.7438 89.9387
" />
<path d="M152.5438 90.9387
L152.5438 89.9387
" />
<path d="M166.5438 76.9387
L166.5438 77.9387
" />
<path d="M166.5438 77.9387
L167.3438 77.9387
" />
<path d="M166.5438 81.0387
L166.5438 86.8387
" />
<path d="M166.5438 86.8387
L167.3438 86.8387
" />
<path d="M166.5438 89.9387
L166.5438 90.9387
" />
<path d="M166.5438 90.9387
L152.5438 90.9387
" />
<path d="M167.3438 77.9387
L167.3438 81.0387
" />
<path d="M167.3438 81.0387
L166.5438 81.0387
" />
<path d="M167.3438 86.8387
L167.3438 89.9387
" />
<path d="M167.3438 89.9387
L166.5438 89.9387
" />
<path d="M378.9947 77.3441
L379.7947 77.3441
" />
<path d="M378.9947 80.4441
L378.9947 77.3441
" />
<path d="M378.9947 86.2441
L379.7947 86.2441
" />
<path d="M378.9947 89.3441
L378.9947 86.2441
" />
<path d="M379.7947 76.3441
L393.7947 76.3441
" />
<path d="M379.7947 77.3441
L379.7947 76.3441
" />
<path d="M379.7947 80.4441
L378.9947 80.4441
" />
<path d="M379.7947 86.2441
L379.7947 80.4441
" />
<path d="M379.7947 89.3441
L378.9947 89.3441
" />
<path d="M379.7947 90.3441
L379.7947 89.3441
" />
<path d="M393.7947 76.3441
L393.7947 77.3441
" />
<path d="M393.7947 77.3441
L394.5947 77.3441
" />
<path d="M393.7947 80.4441
L393.7947 86.2441
" />
<path d="M393.7947 86.2441
L394.5947 86.2441
" />
<path d="M393.7947 89.3441
L393.7947 90.3441
" />
<path d="M393.7947 90.3441
L379.7947 90.3441
" />
<path d="M394.5947 77.3441
L394.5947 80.4441
" />
<path d="M394.5947 80.4441
L393.7947 80.4441
" />
<path d="M394.5947 86.2441
L394.5947 89.3441
" />
<path d="M394.5947 89.3441
L393.7947 89.3441
" />
<path d="M151.7438 39.8387
L152.5438 39.8387
" />
<path d="M151.7438 42.9387
L151.7438 39.8387
" />
<path d="M151.7438 48.7387
L152.5438 48.7387
" />
<path d="M151.7438 51.8387
L151.7438 48.7387
" />
<path d="M152.5438 38.8387
L166.5438 38.8387
" />
<path d="M152.5438 39.8387
L152.5438 38.8387
" />
<path d="M152.5438 42.9387
L151.7438 42.9387
" />
<path d="M152.5438 48.7387
L152.5438 42.9387
" />
<path d="M152.5438 51.8387
L151.7438 51.8387
" />
<path d="M152.5438 52.8387
L152.5438 51.8387
" />
<path d="M166.5438 38.8387
L166.5438 39.8387
" />
<path d="M166.5438 39.8387
L167.3438 39.8387
" />
<path d="M166.5438 42.9387
L166.5438 48.7387
" />
<path d="M166.5438 48.7387
L167.3438 48.7387
" />
<path d="M166.5438 51.8387
L166.5438 52.8387
" />
<path d="M166.5438 52.8387
L152.5438 52.8387
" />
<path d="M167.3438 39.8387
L167.3438 42.9387
" />
<path d="M167.3438 42.9387
L166.5438 42.9387
" />
<path d="M167.3438 48.7387
L167.3438 51.8387
" />
<path d="M167.3438 51.8387
L166.5438 51.8387
" />
<path d="M293.2815 53.5315
L294.0815 53.5315
" />
<path d="M293.2815 56.6315
L293.2815 53.5315
" />
<path d="M293.2815 62.4315
L294.0815 62.4315
" />
<path d="M293.2815 65.5315
L293.2815 62.4315
" />
<path d="M294.0815 52.5315
L308.0815 52.5315
" />
<path d="M294.0815 53.5315
L294.0815 52.5315
" />
<path d="M294.0815 56.6315
L293.2815 56.6315
" />
<path d="M294.0815 62.4315
L294.0815 56.6315
" />
<path d="M294.0815 65.5315
L293.2815 65.5315
" />
<path d="M294.0815 66.5315
L294.0815 65.5315
" />
<path d="M308.0815 52.5315
L308.0815 53.5315
" />
<path d="M308.0815 53.5315
L308.8815 53.5315
" />
<path d="M308.0815 56.6315
L308.0815 62.4315
" />
<path d="M308.0815 62.4315
L308.8815 62.4315
" />
<path d="M308.0815 65.5315
L308.0815 66.5315
" />
<path d="M308.0815 66.5315
L294.0815 66.5315
" />
<path d="M308.8815 53.5315
L308.8815 56.6315
" />
<path d="M308.8815 56.6315
L308.0815 56.6315
" />
<path d="M308.8815 62.4315
L308.8815 65.5315
" />
<path d="M308.8815 65.5315
L308.0815 65.5315
" />
<path d="M132.6938 77.9387
L133.4938 77.9387
" />
<path d="M132.6938 81.0387
L132.6938 77.9387
" />
<path d="M132.6938 86.8387
L133.4938 86.8387
" />
<path d="M132.6938 89.9387
L132.6938 86.8387
" />
<path d="M133.4938 76.9387
L147.4938 76.9387
" />
<path d="M133.4938 77.9387
L133.4938 76.9387
" />
<path d="M133.4938 81.0387
L132.6938 81.0387
" />
<path d="M133.4938 86.8387
L133.4938 81.0387
" />
<path d="M133.4938 89.9387
L132.6938 89.9387
" />
<path d="M133.4938 90.9387
L133.4938 89.9387
" />
<path d="M147.4938 76.9387
L147.4938 77.9387
" />
<path d="M147.4938 77.9387
L148.2938 77.9387
" />
<path d="M147.4938 81.0387
L147.4938 86.8387
" />
<path d="M147.4938 86.8387
L148.2938 86.8387
" />
<path d="M147.4938 89.9387
L147.4938 90.9387
" />
<path d="M147.4938 90.9387
L133.4938 90.9387
" />
<path d="M148.2938 77.9387
L148.2938 81.0387
" />
<path d="M148.2938 81.0387
L147.4938 81.0387
" />
<path d="M148.2938 86.8387
L148.2938 89.9387
" />
<path d="M148.2938 89.9387
L147.4938 89.9387
" />
<path d="M37.4438 96.9887
L38.2438 96.9887
" />
<path d="M37.4438 100.0887
L37.4438 96.9887
" />
<path d="M37.4438 105.8887
L38.2438 105.8887
" />
<path d="M37.4438 108.9887
L37.4438 105.8887
" />
<path d="M38.2438 95.9887
L52.2438 95.9887
" />
<path d="M38.2438 96.9887
L38.2438 95.9887
" />
<path d="M38.2438 100.0887
L37.4438 100.0887
" />
<path d="M38.2438 105.8887
L38.2438 100.0887
" />
<path d="M38.2438 108.9887
L37.4438 108.9887
" />
<path d="M38.2438 109.9887
L38.2438 108.9887
" />
<path d="M52.2438 95.9887
L52.2438 96.9887
" />
<path d="M52.2438 96.9887
L53.0438 96.9887
" />
<path d="M52.2438 100.0887
L52.2438 105.8887
" />
<path d="M52.2438 105.8887
L53.0438 105.8887
" />
<path d="M52.2438 108.9887
L52.2438 109.9887
" />
<path d="M52.2438 109.9887
L38.2438 109.9887
" />
<path d="M53.0438 96.9887
L53.0438 100.0887
" />
<path d="M53.0438 100.0887
L52.2438 100.0887
" />
<path d="M53.0438 105.8887
L53.0438 108.9887
" />
<path d="M53.0438 108.9887
L52.2438 108.9887
" />
<path d="M312.3315 10.6690
L313.1315 10.6690
" />
<path d="M312.3315 13.7690
L312.3315 10.6690
" />
<path d="M312.3315 19.5690
L313.1315 19.5690
" />
<path d="M312.3315 22.6690
L312.3315 19.5690
" />
<path d="M313.1315 9.6690
L327.1315 9.6690
" />
<path d="M313.1315 10.6690
L313.1315 9.6690
" />
<path d="M313.1315 13.7690
L312.3315 13.7690
" />
<path d="M313.1315 19.5690
L313.1315 13.7690
" />
<path d="M313.1315 22.6690
L312.3315 22.6690
" />
<path d="M313.1315 23.6690
L313.1315 22.6690
" />
<path d="M327.1315 9.6690
L327.1315 10.6690
" />
<path d="M327.1315 10.6690
L327.9315 10.6690
" />
<path d="M327.1315 13.7690
L327.1315 19.5690
" />
<path d="M327.1315 19.5690
L327.9315 19.5690
" />
<path d="M327.1315 22.6690
L327.1315 23.6690
" />
<path d="M327.1315 23.6690
L313.1315 23.6690
" />
<path d="M327.9315 10.6690
L327.9315 13.7690
" />
<path d="M327.9315 13.7690
L327.1315 13.7690
" />
<path d="M327.9315 19.5690
L327.9315 22.6690
" />
<path d="M327.9315 22.6690
L327.1315 22.6690
" />
<path d="M37.4438 77.9387
L38.2438 77.9387
" />
<path d="M37.4438 81.0387
L37.4438 77.9387
" />
<path d="M37.4438 86.8387
L38.2438 86.8387
" />
<path d="M37.4438 89.9387
L37.4438 86.8387
" />
<path d="M38.2438 76.9387
L52.2438 76.9387
" />
<path d="M38.2438 77.9387
L38.2438 76.9387
" />
<path d="M38.2438 81.0387
L37.4438 81.0387
" />
<path d="M38.2438 86.8387
L38.2438 81.0387
" />
<path d="M38.2438 89.9387
L37.4438 89.9387
" />
<path d="M38.2438 90.9387
L38.2438 89.9387
" />
<path d="M52.2438 76.9387
L52.2438 77.9387
" />
<path d="M52.2438 77.9387
L53.0438 77.9387
" />
<path d="M52.2438 81.0387
L52.2438 86.8387
" />
<path d="M52.2438 86.8387
L53.0438 86.8387
" />
<path d="M52.2438 89.9387
L52.2438 90.9387
" />
<path d="M52.2438 90.9387
L38.2438 90.9387
" />
<path d="M53.0438 77.9387
L53.0438 81.0387
" />
<path d="M53.0438 81.0387
L52.2438 81.0387
" />
<path d="M53.0438 86.8387
L53.0438 89.9387
" />
<path d="M53.0438 89.9387
L52.2438 89.9387
" />
<path d="M75.5438 16.0262
L76.3438 16.0262
" />
<path d="M75.5438 19.1262
L75.5438 16.0262
" />
<path d="M75.5438 24.9262
L76.3438 24.9262
" />
<path d="M75.5438 28.0262
L75.5438 24.9262
" />
<path d="M76.3438 15.0262
L90.3438 15.0262
" />
<path d="M76.3438 16.0262
L76.3438 15.0262
" />
<path d="M76.3438 19.1262
L75.5438 19.1262
" />
<path d="M76.3438 24.9262
L76.3438 19.1262
" />
<path d="M76.3438 28.0262
L75.5438 28.0262
" />
<path d="M76.3438 29.0262
L76.3438 28.0262
" />
<path d="M90.3438 15.0262
L90.3438 16.0262
" />
<path d="M90.3438 16.0262
L91.1438 16.0262
" />
<path d="M90.3438 19.1262
L90.3438 24.9262
" />
<path d="M90.3438 24.9262
L91.1438 24.9262
" />
<path d="M90.3438 28.0262
L90.3438 29.0262
" />
<path d="M90.3438 29.0262
L76.3438 29.0262
" />
<path d="M91.1438 16.0262
L91.1438 19.1262
" />
<path d="M91.1438 19.1262
L90.3438 19.1262
" />
<path d="M91.1438 24.9262
L91.1438 28.0262
" />
<path d="M91.1438 28.0262
L90.3438 28.0262
" />
<path d="M113.6438 35.0762
L114.4438 35.0762
" />
<path d="M113.6438 38.1762
L113.6438 35.0762
" />
<path d="M113.6438 43.9762
L114.4438 43.9762
" />
<path d="M113.6438 47.0762
L113.6438 43.9762
" />
<path d="M114.4438 34.0762
L128.4438 34.0762
" />
<path d="M114.4438 35.0762
L114.4438 34.0762
" />
<path d="M114.4438 38.1762
L113.6438 38.1762
" />
<path d="M114.4438 43.9762
L114.4438 38.1762
" />
<path d="M114.4438 47.0762
L113.6438 47.0762
" />
<path d="M114.4438 48.0762
L114.4438 47.0762
" />
<path d="M128.4438 34.0762
L128.4438 35.0762
" />
<path d="M128.4438 35.0762
L129.2438 35.0762
" />
<path d="M128.4438 38.1762
L128.4438 43.9762
" />
<path d="M128.4438 43.9762
L129.2438 43.9762
" />
<path d="M128.4438 47.0762
L128.4438 48.0762
" />
<path d="M128.4438 48.0762
L114.4438 48.0762
" />
<path d="M129.2438 35.0762
L129.2438 38.1762
" />
<path d="M129.2438 38.1762
L128.4438 38.1762
" />
<path d="M129.2438 43.9762
L129.2438 47.0762
" />
<path d="M129.2438 47.0762
L128.4438 47.0762
" />
<path d="M331.3815 15.4315
L332.1815 15.4315
" />
<path d="M331.3815 18.5315
L331.3815 15.4315
" />
<path d="M331.3815 24.3315
L332.1815 24.3315
" />
<path d="M331.3815 27.4315
L331.3815 24.3315
" />
<path d="M332.1815 14.4315
L346.1815 14.4315
" />
<path d="M332.1815 15.4315
L332.1815 14.4315
" />
<path d="M332.1815 18.5315
L331.3815 18.5315
" />
<path d="M332.1815 24.3315
L332.1815 18.5315
" />
<path d="M332.1815 27.4315
L331.3815 27.4315
" />
<path d="M332.1815 28.4315
L332.1815 27.4315
" />
<path d="M346.1815 14.4315
L346.1815 15.4315
" />
<path d="M346.1815 15.4315
L346.9815 15.4315
" />
<path d="M346.1815 18.5315
L346.1815 24.3315
" />
<path d="M346.1815 24.3315
L346.9815 24.3315
" />
<path d="M346.1815 27.4315
L346.1815 28.4315
" />
<path d="M346.1815 28.4315
L332.1815 28.4315
" />
<path d="M346.9815 15.4315
L346.9815 18.5315
" />
<path d="M346.9815 18.5315
L346.1815 18.5315
" />
<path d="M346.9815 24.3315
L346.9815 27.4315
" />
<path d="M346.9815 27.4315
L346.1815 27.4315
" />
<path d="M274.2315 39.2440
L275.0315 39.2440
" />
<path d="M274.2315 42.3440
L274.2315 39.2440
" />
<path d="M274.2315 48.1440
L275.0315 48.1440
" />
<path d="M274.2315 51.2440
L274.2315 48.1440
" />
<path d="M275.0315 38.2440
L289.0315 38.2440
" />
<path d="M275.0315 39.2440
L275.0315 38.2440
" />
<path d="M275.0315 42.3440
L274.2315 42.3440
" />
<path d="M275.0315 48.1440
L275.0315 42.3440
" />
<path d="M275.0315 51.2440
L274.2315 51.2440
" />
<path d="M275.0315 52.2440
L275.0315 51.2440
" />
<path d="M289.0315 38.2440
L289.0315 39.2440
" />
<path d="M289.0315 39.2440
L289.8315 39.2440
" />
<path d="M289.0315 42.3440
L289.0315 48.1440
" />
<path d="M289.0315 48.1440
L289.8315 48.1440
" />
<path d="M289.0315 51.2440
L289.0315 52.2440
" />
<path d="M289.0315 52.2440
L275.0315 52.2440
" />
<path d="M289.8315 39.2440
L289.8315 42.3440
" />
<path d="M289.8315 42.3440
L289.0315 42.3440
" />
<path d="M289.8315 48.1440
L289.8315 51.2440
" />
<path d="M289.8315 51.2440
L289.0315 51.2440
" />
<path d="M94.5938 68.4137
L95.3938 68.4137
" />
<path d="M94.5938 71.5137
L94.5938 68.4137
" />
<path d="M94.5938 77.3137
L95.3938 77.3137
" />
<path d="M94.5938 80.4137
L94.5938 77.3137
" />
<path d="M95.3938 67.4137
L109.3938 67.4137
" />
<path d="M95.3938 68.4137
L95.3938 67.4137
" />
<path d="M95.3938 71.5137
L94.5938 71.5137
" />
<path d="M95.3938 77.3137
L95.3938 71.5137
" />
<path d="M95.3938 80.4137
L94.5938 80.4137
" />
<path d="M95.3938 81.4137
L95.3938 80.4137
" />
<path d="M109.3938 67.4137
L109.3938 68.4137
" />
<path d="M109.3938 68.4137
L110.1938 68.4137
" />
<path d="M109.3938 71.5137
L109.3938 77.3137
" />
<path d="M109.3938 77.3137
L110.1938 77.3137
" />
<path d="M109.3938 80.4137
L109.3938 81.4137
" />
<path d="M109.3938 81.4137
L95.3938 81.4137
" />
<path d="M110.1938 68.4137
L110.1938 71.5137
" />
<path d="M110.1938 71.5137
L109.3938 71.5137
" />
<path d="M110.1938 77.3137
L110.1938 80.4137
" />
<path d="M110.1938 80.4137
L109.3938 80.4137
" />
<path d="M331.3815 91.6315
L332.1815 91.6315
" />
<path d="M331.3815 94.7315
L331.3815 91.6315
" />
<path d="M331.3815 100.5315
L332.1815 100.5315
" />
<path d="M331.3815 103.6315
L331.3815 100.5315
" />
<path d="M332.1815 90.6315
L346.1815 90.6315
" />
<path d="M332.1815 91.6315
L332.1815 90.6315
" />
<path d="M332.1815 94.7315
L331.3815 94.7315
" />
<path d="M332.1815 100.5315
L332.1815 94.7315
" />
<path d="M332.1815 103.6315
L331.3815 103.6315
" />
<path d="M332.1815 104.6315
L332.1815 103.6315
" />
<path d="M346.1815 90.6315
L346.1815 91.6315
" />
<path d="M346.1815 91.6315
L346.9815 91.6315
" />
<path d="M346.1815 94.7315
L346.1815 100.5315
" />
<path d="M346.1815 100.5315
L346.9815 100.5315
" />
<path d="M346.1815 103.6315
L346.1815 104.6315
" />
<path d="M346.1815 104.6315
L332.1815 104.6315
" />
<path d="M346.9815 91.6315
L346.9815 94.7315
" />
<path d="M346.9815 94.7315
L346.1815 94.7315
" />
<path d="M346.9815 100.5315
L346.9815 103.6315
" />
<path d="M346.9815 103.6315
L346.1815 103.6315
" />
<path d="M293.2815 15.4315
L294.0815 15.4315
" />
<path d="M293.2815 18.5315
L293.2815 15.4315
" />
<path d="M293.2815 24.3315
L294.0815 24.3315
" />
<path d="M293.2815 27.4315
L293.2815 24.3315
" />
<path d="M294.0815 14.4315
L308.0815 14.4315
" />
<path d="M294.0815 15.4315
L294.0815 14.4315
" />
<path d="M294.0815 18.5315
L293.2815 18.5315
" />
<path d="M294.0815 24.3315
L294.0815 18.5315
" />
<path d="M294.0815 27.4315
L293.2815 27.4315
" />
<path d="M294.0815 28.4315
L294.0815 27.4315
" />
<path d="M308.0815 14.4315
L308.0815 15.4315
" />
<path d="M308.0815 15.4315
L308.8815 15.4315
" />
<path d="M308.0815 18.5315
L308.0815 24.3315
" />
<path d="M308.0815 24.3315
L308.8815 24.3315
" />
<path d="M308.0815 27.4315
L308.0815 28.4315
" />
<path d="M308.0815 28.4315
L294.0815 28.4315
" />
<path d="M308.8815 15.4315
L308.8815 18.5315
" />
<path d="M308.8815 18.5315
L308.0815 18.5315
" />
<path d="M308.8815 24.3315
L308.8815 27.4315
" />
<path d="M308.8815 27.4315
L308.0815 27.4315
" />
<path d="M56.4938 39.8387
L57.2938 39.8387
" />
<path d="M56.4938 42.9387
L56.4938 39.8387
" />
<path d="M56.4938 48.7387
L57.2938 48.7387
" />
<path d="M56.4938 51.8387
L56.4938 48.7387
" />
<path d="M57.2938 38.8387
L71.2938 38.8387
" />
<path d="M57.2938 39.8387
L57.2938 38.8387
" />
<path d="M57.2938 42.9387
L56.4938 42.9387
" />
<path d="M57.2938 48.7387
L57.2938 42.9387
" />
<path d="M57.2938 51.8387
L56.4938 51.8387
" />
<path d="M57.2938 52.8387
L57.2938 51.8387
" />
<path d="M71.2938 38.8387
L71.2938 39.8387
" />
<path d="M71.2938 39.8387
L72.0938 39.8387
" />
<path d="M71.2938 42.9387
L71.2938 48.7387
" />
<path d="M71.2938 48.7387
L72.0938 48.7387
" />
<path d="M71.2938 51.8387
L71.2938 52.8387
" />
<path d="M71.2938 52.8387
L57.2938 52.8387
" />
<path d="M72.0938 39.8387
L72.0938 42.9387
" />
<path d="M72.0938 42.9387
L71.2938 42.9387
" />
<path d="M72.0938 48.7387
L72.0938 51.8387
" />
<path d="M72.0938 51.8387
L71.2938 51.8387
" />
<path d="M369.4815 96.3940
L370.2815 96.3940
" />
<path d="M369.4815 99.4940
L369.4815 96.3940
" />
<path d="M369.4815 105.2940
L370.2815 105.2940
" />
<path d="M369.4815 108.3940
L369.4815 105.2940
" />
<path d="M370.2815 95.3940
L384.2815 95.3940
" />
<path d="M370.2815 96.3940
L370.2815 95.3940
" />
<path d="M370.2815 99.4940
L369.4815 99.4940
" />
<path d="M370.2815 105.2940
L370.2815 99.4940
" />
<path d="M370.2815 108.3940
L369.4815 108.3940
" />
<path d="M370.2815 109.3940
L370.2815 108.3940
" />
<path d="M384.2815 95.3940
L384.2815 96.3940
" />
<path d="M384.2815 96.3940
L385.0815 96.3940
" />
<path d="M384.2815 99.4940
L384.2815 105.2940
" />
<path d="M384.2815 105.2940
L385.0815 105.2940
" />
<path d="M384.2815 108.3940
L384.2815 109.3940
" />
<path d="M384.2815 109.3940
L370.2815 109.3940
" />
<path d="M385.0815 96.3940
L385.0815 99.4940
" />
<path d="M385.0815 99.4940
L384.2815 99.4940
" />
<path d="M385.0815 105.2940
L385.0815 108.3940
" />
<path d="M385.0815 108.3940
L384.2815 108.3940
" />
<path d="M94.5938 49.3637
L95.3938 49.3637
" />
<path d="M94.5938 52.4637
L94.5938 49.3637
" />
<path d="M94.5938 58.2637
L95.3938 58.2637
" />
<path d="M94.5938 61.3637
L94.5938 58.2637
" />
<path d="M95.3938 48.3637
L109.3938 48.3637
" />
<path d="M95.3938 49.3637
L95.3938 48.3637
" />
<path d="M95.3938 52.4637
L94.5938 52.4637
" />
<path d="M95.3938 58.2637
L95.3938 52.4637
" />
<path d="M95.3938 61.3637
L94.5938 61.3637
" />
<path d="M95.3938 62.3637
L95.3938 61.3637
" />
<path d="M109.3938 48.3637
L109.3938 49.3637
" />
<path d="M109.3938 49.3637
L110.1938 49.3637
" />
<path d="M109.3938 52.4637
L109.3938 58.2637
" />
<path d="M109.3938 58.2637
L110.1938 58.2637
" />
<path d="M109.3938 61.3637
L109.3938 62.3637
" />
<path d="M109.3938 62.3637
L95.3938 62.3637
" />
<path d="M110.1938 49.3637
L110.1938 52.4637
" />
<path d="M110.1938 52.4637
L109.3938 52.4637
" />
<path d="M110.1938 58.2637
L110.1938 61.3637
" />
<path d="M110.1938 61.3637
L109.3938 61.3637
" />
<path d="M255.1815 58.2940
L255.9815 58.2940
" />
<path d="M255.1815 61.3940
L255.1815 58.2940
" />
<path d="M255.1815 67.1940
L255.9815 67.1940
" />
<path d="M255.1815 70.2940
L255.1815 67.1940
" />
<path d="M255.9815 57.2940
L269.9815 57.2940
" />
<path d="M255.9815 58.2940
L255.9815 57.2940
" />
<path d="M255.9815 61.3940
L255.1815 61.3940
" />
<path d="M255.9815 67.1940
L255.9815 61.3940
" />
<path d="M255.9815 70.2940
L255.1815 70.2940
" />
<path d="M255.9815 71.2940
L255.9815 70.2940
" />
<path d="M269.9815 57.2940
L269.9815 58.2940
" />
<path d="M269.9815 58.2940
L270.7815 58.2940
" />
<path d="M269.9815 61.3940
L269.9815 67.1940
" />
<path d="M269.9815 67.1940
L270.7815 67.1940
" />
<path d="M269.9815 70.2940
L269.9815 71.2940
" />
<path d="M269.9815 71.2940
L255.9815 71.2940
" />
<path d="M270.7815 58.2940
L270.7815 61.3940
" />
<path d="M270.7815 61.3940
L269.9815 61.3940
" />
<path d="M270.7815 67.1940
L270.7815 70.2940
" />
<path d="M270.7815 70.2940
L269.9815 70.2940
" />
<path d="M75.5438 92.2262
L76.3438 92.2262
" />
<path d="M75.5438 95.3262
L75.5438 92.2262
" />
<path d="M75.5438 101.1262
L76.3438 101.1262
" />
<path d="M75.5438 104.2262
L75.5438 101.1262
" />
<path d="M76.3438 91.2262
L90.3438 91.2262
" />
<path d="M76.3438 92.2262
L76.3438 91.2262
" />
<path d="M76.3438 95.3262
L75.5438 95.3262
" />
<path d="M76.3438 101.1262
L76.3438 95.3262
" />
<path d="M76.3438 104.2262
L75.5438 104.2262
" />
<path d="M76.3438 105.2262
L76.3438 104.2262
" />
<path d="M90.3438 91.2262
L90.3438 92.2262
" />
<path d="M90.3438 92.2262
L91.1438 92.2262
" />
<path d="M90.3438 95.3262
L90.3438 101.1262
" />
<path d="M90.3438 101.1262
L91.1438 101.1262
" />
<path d="M90.3438 104.2262
L90.3438 105.2262
" />
<path d="M90.3438 105.2262
L76.3438 105.2262
" />
<path d="M91.1438 92.2262
L91.1438 95.3262
" />
<path d="M91.1438 95.3262
L90.3438 95.3262
" />
<path d="M91.1438 101.1262
L91.1438 104.2262
" />
<path d="M91.1438 104.2262
L90.3438 104.2262
" />
<path d="M369.4815 39.2440
L370.2815 39.2440
" />
<path d="M369.4815 42.3440
L369.4815 39.2440
" />
<path d="M369.4815 48.1440
L370.2815 48.1440
" />
<path d="M369.4815 51.2440
L369.4815 48.1440
" />
<path d="M370.2815 38.2440
L384.2815 38.2440
" />
<path d="M370.2815 39.2440
L370.2815 38.2440
" />
<path d="M370.2815 42.3440
L369.4815 42.3440
" />
<path d="M370.2815 48.1440
L370.2815 42.3440
" />
<path d="M370.2815 51.2440
L369.4815 51.2440
" />
<path d="M370.2815 52.2440
L370.2815 51.2440
" />
<path d="M384.2815 38.2440
L384.2815 39.2440
" />
<path d="M384.2815 39.2440
L385.0815 39.2440
" />
<path d="M384.2815 42.3440
L384.2815 48.1440
" />
<path d="M384.2815 48.1440
L385.0815 48.1440
" />
<path d="M384.2815 51.2440
L384.2815 52.2440
" />
<path d="M384.2815 52.2440
L370.2815 52.2440
" />
<path d="M385.0815 39.2440
L385.0815 42.3440
" />
<path d="M385.0815 42.3440
L384.2815 42.3440
" />
<path d="M385.0815 48.1440
L385.0815 51.2440
" />
<path d="M385.0815 51.2440
L384.2815 51.2440
" />
<path d="M293.2815 34.4815
L294.0815 34.4815
" />
<path d="M293.2815 37.5815
L293.2815 34.4815
" />
<path d="M293.2815 43.3815
L294.0815 43.3815
" />
<path d="M293.2815 46.4815
L293.2815 43.3815
" />
<path d="M294.0815 33.4815
L308.0815 33.4815
" />
<path d="M294.0815 34.4815
L294.0815 33.4815
" />
<path d="M294.0815 37.5815
L293.2815 37.5815
" />
<path d="M294.0815 43.3815
L294.0815 37.5815
" />
<path d="M294.0815 46.4815
L293.2815 46.4815
" />
<path d="M294.0815 47.4815
L294.0815 46.4815
" />
<path d="M308.0815 33.4815
L308.0815 34.4815
" />
<path d="M308.0815 34.4815
L308.8815 34.4815
" />
<path d="M308.0815 37.5815
L308.0815 43.3815
" />
<path d="M308.0815 43.3815
L308.8815 43.3815
" />
<path d="M308.0815 46.4815
L308.0815 47.4815
" />
<path d="M308.0815 47.4815
L294.0815 47.4815
" />
<path d="M308.8815 34.4815
L308.8815 37.5815
" />
<path d="M308.8815 37.5815
L308.0815 37.5815
" />
<path d="M308.8815 43.3815
L308.8815 46.4815
" />
<path d="M308.8815 46.4815
L308.0815 46.4815
" />
<path d="M37.4438 20.7887
L38.2438 20.7887
" />
<path d="M37.4438 23.8887
L37.4438 20.7887
" />
<path d="M37.4438 29.6887
L38.2438 29.6887
" />
<path d="M37.4438 32.7887
L37.4438 29.6887
" />
<path d="M38.2438 19.7887
L52.2438 19.7887
" />
<path d="M38.2438 20.7887
L38.2438 19.7887
" />
<path d="M38.2438 23.8887
L37.4438 23.8887
" />
<path d="M38.2438 29.6887
L38.2438 23.8887
" />
<path d="M38.2438 32.7887
L37.4438 32.7887
" />
<path d="M38.2438 33.7887
L38.2438 32.7887
" />
<path d="M52.2438 19.7887
L52.2438 20.7887
" />
<path d="M52.2438 20.7887
L53.0438 20.7887
" />
<path d="M52.2438 23.8887
L52.2438 29.6887
" />
<path d="M52.2438 29.6887
L53.0438 29.6887
" />
<path d="M52.2438 32.7887
L52.2438 33.7887
" />
<path d="M52.2438 33.7887
L38.2438 33.7887
" />
<path d="M53.0438 20.7887
L53.0438 23.8887
" />
<path d="M53.0438 23.8887
L52.2438 23.8887
" />
<path d="M53.0438 29.6887
L53.0438 32.7887
" />
<path d="M53.0438 32.7887
L52.2438 32.7887
" />
<path d="M261.3385 106.7548
L264.7135 112.6005
" />
<path d="M264.7135 112.6005
L275.3657 106.4505
" />
<path d="M271.9907 100.6048
L261.3385 106.7548
" />
<path d="M273.2765 127.4320
L276.6515 133.2777
" />
<path d="M275.3657 106.4505
L271.9907 100.6048
" />
<path d="M276.6515 133.2777
L287.3037 127.1277
" />
<path d="M283.9287 121.2820
L273.2765 127.4320
" />
<path d="M287.3037 127.1277
L283.9287 121.2820
" />
<path d="M331.3815 53.5315
L332.1815 53.5315
" />
<path d="M331.3815 56.6315
L331.3815 53.5315
" />
<path d="M331.3815 62.4315
L332.1815 62.4315
" />
<path d="M331.3815 65.5315
L331.3815 62.4315
" />
<path d="M332.1815 52.5315
L346.1815 52.5315
" />
<path d="M332.1815 53.5315
L332.1815 52.5315
" />
<path d="M332.1815 56.6315
L331.3815 56.6315
" />
<path d="M332.1815 62.4315
L332.1815 56.6315
" />
<path d="M332.1815 65.5315
L331.3815 65.5315
" />
<path d="M332.1815 66.5315
L332.1815 65.5315
" />
<path d="M346.1815 52.5315
L346.1815 53.5315
" />
<path d="M346.1815 53.5315
L346.9815 53.5315
" />
<path d="M346.1815 56.6315
L346.1815 62.4315
" />
<path d="M346.1815 62.4315
L346.9815 62.4315
" />
<path d="M346.1815 65.5315
L346.1815 66.5315
" />
<path d="M346.1815 66.5315
L332.1815 66.5315
" />
<path d="M346.9815 53.5315
L346.9815 56.6315
" />
<path d="M346.9815 56.6315
L346.1815 56.6315
" />
<path d="M346.9815 62.4315
L346.9815 65.5315
" />
<path d="M346.9815 65.5315
L346.1815 65.5315
" />
<path d="M293.2815 91.6315
L294.0815 91.6315
" />
<path d="M293.2815 94.7315
L293.2815 91.6315
" />
<path d="M293.2815 100.5315
L294.0815 100.5315
" />
<path d="M293.2815 103.6315
L293.2815 100.5315
" />
<path d="M294.0815 90.6315
L308.0815 90.6315
" />
<path d="M294.0815 91.6315
L294.0815 90.6315
" />
<path d="M294.0815 94.7315
L293.2815 94.7315
" />
<path d="M294.0815 100.5315
L294.0815 94.7315
" />
<path d="M294.0815 103.6315
L293.2815 103.6315
" />
<path d="M294.0815 104.6315
L294.0815 103.6315
" />
<path d="M308.0815 90.6315
L308.0815 91.6315
" />
<path d="M308.0815 91.6315
L308.8815 91.6315
" />
<path d="M308.0815 94.7315
L308.0815 100.5315
" />
<path d="M308.0815 100.5315
L308.8815 100.5315
" />
<path d="M308.0815 103.6315
L308.0815 104.6315
" />
<path d="M308.0815 104.6315
L294.0815 104.6315
" />
<path d="M308.8815 91.6315
L308.8815 94.7315
" />
<path d="M308.8815 94.7315
L308.0815 94.7315
" />
<path d="M308.8815 100.5315
L308.8815 103.6315
" />
<path d="M308.8815 103.6315
L308.0815 103.6315
" />
<path d="M312.3315 48.7690
L313.1315 48.7690
" />
<path d="M312.3315 51.8690
L312.3315 48.7690
" />
<path d="M312.3315 57.6690
L313.1315 57.6690
" />
<path d="M312.3315 60.7690
L312.3315 57.6690
" />
<path d="M313.1315 47.7690
L327.1315 47.7690
" />
<path d="M313.1315 48.7690
L313.1315 47.7690
" />
<path d="M313.1315 51.8690
L312.3315 51.8690
" />
<path d="M313.1315 57.6690
L313.1315 51.8690
" />
<path d="M313.1315 60.7690
L312.3315 60.7690
" />
<path d="M313.1315 61.7690
L313.1315 60.7690
" />
<path d="M327.1315 47.7690
L327.1315 48.7690
" />
<path d="M327.1315 48.7690
L327.9315 48.7690
" />
<path d="M327.1315 51.8690
L327.1315 57.6690
" />
<path d="M327.1315 57.6690
L327.9315 57.6690
" />
<path d="M327.1315 60.7690
L327.1315 61.7690
" />
<path d="M327.1315 61.7690
L313.1315 61.7690
" />
<path d="M327.9315 48.7690
L327.9315 51.8690
" />
<path d="M327.9315 51.8690
L327.1315 51.8690
" />
<path d="M327.9315 57.6690
L327.9315 60.7690
" />
<path d="M327.9315 60.7690
L327.1315 60.7690
" />
<path d="M113.6438 92.2262
L114.4438 92.2262
" />
<path d="M113.6438 95.3262
L113.6438 92.2262
" />
<path d="M113.6438 101.1262
L114.4438 101.1262
" />
<path d="M113.6438 104.2262
L113.6438 101.1262
" />
<path d="M114.4438 91.2262
L128.4438 91.2262
" />
<path d="M114.4438 92.2262
L114.4438 91.2262
" />
<path d="M114.4438 95.3262
L113.6438 95.3262
" />
<path d="M114.4438 101.1262
L114.4438 95.3262
" />
<path d="M114.4438 104.2262
L113.6438 104.2262
" />
<path d="M114.4438 105.2262
L114.4438 104.2262
" />
<path d="M128.4438 91.2262
L128.4438 92.2262
" />
<path d="M128.4438 92.2262
L129.2438 92.2262
" />
<path d="M128.4438 95.3262
L128.4438 101.1262
" />
<path d="M128.4438 101.1262
L129.2438 101.1262
" />
<path d="M128.4438 104.2262
L128.4438 105.2262
" />
<path d="M128.4438 105.2262
L114.4438 105.2262
" />
<path d="M129.2438 92.2262
L129.2438 95.3262
" />
<path d="M129.2438 95.3262
L128.4438 95.3262
" />
<path d="M129.2438 101.1262
L129.2438 104.2262
" />
<path d="M129.2438 104.2262
L128.4438 104.2262
" />
<path d="M75.5438 54.1262
L76.3438 54.1262
" />
<path d="M75.5438 57.2262
L75.5438 54.1262
" />
<path d="M75.5438 63.0262
L76.3438 63.0262
" />
<path d="M75.5438 66.1262
L75.5438 63.0262
" />
<path d="M76.3438 53.1262
L90.3438 53.1262
" />
<path d="M76.3438 54.1262
L76.3438 53.1262
" />
<path d="M76.3438 57.2262
L75.5438 57.2262
" />
<path d="M76.3438 63.0262
L76.3438 57.2262
" />
<path d="M76.3438 66.1262
L75.5438 66.1262
" />
<path d="M76.3438 67.1262
L76.3438 66.1262
" />
<path d="M90.3438 53.1262
L90.3438 54.1262
" />
<path d="M90.3438 54.1262
L91.1438 54.1262
" />
<path d="M90.3438 57.2262
L90.3438 63.0262
" />
<path d="M90.3438 63.0262
L91.1438 63.0262
" />
<path d="M90.3438 66.1262
L90.3438 67.1262
" />
<path d="M90.3438 67.1262
L76.3438 67.1262
" />
<path d="M91.1438 54.1262
L91.1438 57.2262
" />
<path d="M91.1438 57.2262
L90.3438 57.2262
" />
<path d="M91.1438 63.0262
L91.1438 66.1262
" />
<path d="M91.1438 66.1262
L90.3438 66.1262
" />
<path d="M388.5315 39.2440
L389.3315 39.2440
" />
<path d="M388.5315 42.3440
L388.5315 39.2440
" />
<path d="M388.5315 48.1440
L389.3315 48.1440
" />
<path d="M388.5315 51.2440
L388.5315 48.1440
" />
<path d="M389.3315 38.2440
L403.3315 38.2440
" />
<path d="M389.3315 39.2440
L389.3315 38.2440
" />
<path d="M389.3315 42.3440
L388.5315 42.3440
" />
<path d="M389.3315 48.1440
L389.3315 42.3440
" />
<path d="M389.3315 51.2440
L388.5315 51.2440
" />
<path d="M389.3315 52.2440
L389.3315 51.2440
" />
<path d="M403.3315 38.2440
L403.3315 39.2440
" />
<path d="M403.3315 39.2440
L404.1315 39.2440
" />
<path d="M403.3315 42.3440
L403.3315 48.1440
" />
<path d="M403.3315 48.1440
L404.1315 48.1440
" />
<path d="M403.3315 51.2440
L403.3315 52.2440
" />
<path d="M403.3315 52.2440
L389.3315 52.2440
" />
<path d="M404.1315 39.2440
L404.1315 42.3440
" />
<path d="M404.1315 42.3440
L403.3315 42.3440
" />
<path d="M404.1315 48.1440
L404.1315 51.2440
" />
<path d="M404.1315 51.2440
L403.3315 51.2440
" />
<path d="M312.3315 67.8190
L313.1315 67.8190
" />
<path d="M312.3315 70.9190
L312.3315 67.8190
" />
<path d="M312.3315 76.7190
L313.1315 76.7190
" />
<path d="M312.3315 79.8190
L312.3315 76.7190
" />
<path d="M313.1315 66.8190
L327.1315 66.8190
" />
<path d="M313.1315 67.8190
L313.1315 66.8190
" />
<path d="M313.1315 70.9190
L312.3315 70.9190
" />
<path d="M313.1315 76.7190
L313.1315 70.9190
" />
<path d="M313.1315 79.8190
L312.3315 79.8190
" />
<path d="M313.1315 80.8190
L313.1315 79.8190
" />
<path d="M327.1315 66.8190
L327.1315 67.8190
" />
<path d="M327.1315 67.8190
L327.9315 67.8190
" />
<path d="M327.1315 70.9190
L327.1315 76.7190
" />
<path d="M327.1315 76.7190
L327.9315 76.7190
" />
<path d="M327.1315 79.8190
L327.1315 80.8190
" />
<path d="M327.1315 80.8190
L313.1315 80.8190
" />
<path d="M327.9315 67.8190
L327.9315 70.9190
" />
<path d="M327.9315 70.9190
L327.1315 70.9190
" />
<path d="M327.9315 76.7190
L327.9315 79.8190
" />
<path d="M327.9315 79.8190
L327.1315 79.8190
" />
<path d="M350.4315 77.3440
L351.2315 77.3440
" />
<path d="M350.4315 80.4440
L350.4315 77.3440
" />
<path d="M350.4315 86.2440
L351.2315 86.2440
" />
<path d="M350.4315 89.3440
L350.4315 86.2440
" />
<path d="M351.2315 76.3440
L365.2315 76.3440
" />
<path d="M351.2315 77.3440
L351.2315 76.3440
" />
<path d="M351.2315 80.4440
L350.4315 80.4440
" />
<path d="M351.2315 86.2440
L351.2315 80.4440
" />
<path d="M351.2315 89.3440
L350.4315 89.3440
" />
<path d="M351.2315 90.3440
L351.2315 89.3440
" />
<path d="M365.2315 76.3440
L365.2315 77.3440
" />
<path d="M365.2315 77.3440
L366.0315 77.3440
" />
<path d="M365.2315 80.4440
L365.2315 86.2440
" />
<path d="M365.2315 86.2440
L366.0315 86.2440
" />
<path d="M365.2315 89.3440
L365.2315 90.3440
" />
<path d="M365.2315 90.3440
L351.2315 90.3440
" />
<path d="M366.0315 77.3440
L366.0315 80.4440
" />
<path d="M366.0315 80.4440
L365.2315 80.4440
" />
<path d="M366.0315 86.2440
L366.0315 89.3440
" />
<path d="M366.0315 89.3440
L365.2315 89.3440
" />
<path d="M255.1815 77.3440
L255.9815 77.3440
" />
<path d="M255.1815 80.4440
L255.1815 77.3440
" />
<path d="M255.1815 86.2440
L255.9815 86.2440
" />
<path d="M255.1815 89.3440
L255.1815 86.2440
" />
<path d="M255.9815 76.3440
L269.9815 76.3440
" />
<path d="M255.9815 77.3440
L255.9815 76.3440
" />
<path d="M255.9815 80.4440
L255.1815 80.4440
" />
<path d="M255.9815 86.2440
L255.9815 80.4440
" />
<path d="M255.9815 89.3440
L255.1815 89.3440
" />
<path d="M255.9815 90.3440
L255.9815 89.3440
" />
<path d="M269.9815 76.3440
L269.9815 77.3440
" />
<path d="M269.9815 77.3440
L270.7815 77.3440
" />
<path d="M269.9815 80.4440
L269.9815 86.2440
" />
<path d="M269.9815 86.2440
L270.7815 86.2440
" />
<path d="M269.9815 89.3440
L269.9815 90.3440
" />
<path d="M269.9815 90.3440
L255.9815 90.3440
" />
<path d="M270.7815 77.3440
L270.7815 80.4440
" />
<path d="M270.7815 80.4440
L269.9815 80.4440
" />
<path d="M270.7815 86.2440
L270.7815 89.3440
" />
<path d="M270.7815 89.3440
L269.9815 89.3440
" />
<path d="M132.6938 20.7887
L133.4938 20.7887
" />
<path d="M132.6938 23.8887
L132.6938 20.7887
" />
<path d="M132.6938 29.6887
L133.4938 29.6887
" />
<path d="M132.6938 32.7887
L132.6938 29.6887
" />
<path d="M133.4938 19.7887
L147.4938 19.7887
" />
<path d="M133.4938 20.7887
L133.4938 19.7887
" />
<path d="M133.4938 23.8887
L132.6938 23.8887
" />
<path d="M133.4938 29.6887
L133.4938 23.8887
" />
<path d="M133.4938 32.7887
L132.6938 32.7887
" />
<path d="M133.4938 33.7887
L133.4938 32.7887
" />
<path d="M147.4938 19.7887
L147.4938 20.7887
" />
<path d="M147.4938 20.7887
L148.2938 20.7887
" />
<path d="M147.4938 23.8887
L147.4938 29.6887
" />
<path d="M147.4938 29.6887
L148.2938 29.6887
" />
<path d="M147.4938 32.7887
L147.4938 33.7887
" />
<path d="M147.4938 33.7887
L133.4938 33.7887
" />
<path d="M148.2938 20.7887
L148.2938 23.8887
" />
<path d="M148.2938 23.8887
L147.4938 23.8887
" />
<path d="M148.2938 29.6887
L148.2938 32.7887
" />
<path d="M148.2938 32.7887
L147.4938 32.7887
" />
<path d="M265.1668 114.1194
L266.0328 113.6194
" />
<path d="M265.6328 112.9266
L268.3175 111.3766
" />
<path d="M266.0328 113.6194
L265.6328 112.9266
" />
<path d="M268.3175 111.3766
L268.7175 112.0694
" />
<path d="M268.7175 112.0694
L273.7404 109.1694
" />
<path d="M272.1668 126.2438
L265.1668 114.1194
" />
<path d="M273.0328 125.7438
L272.1668 126.2438
" />
<path d="M273.3404 108.4766
L276.0251 106.9266
" />
<path d="M273.4328 126.4366
L273.0328 125.7438
" />
<path d="M273.7404 109.1694
L273.3404 108.4766
" />
<path d="M275.7175 124.1938
L276.1175 124.8866
" />
<path d="M276.0251 106.9266
L276.4251 107.6194
" />
<path d="M276.1175 124.8866
L273.4328 126.4366
" />
<path d="M276.4251 107.6194
L277.2911 107.1194
" />
<path d="M277.2911 107.1194
L284.2911 119.2438
" />
<path d="M280.7404 121.2938
L275.7175 124.1938
" />
<path d="M281.1404 121.9866
L280.7404 121.2938
" />
<path d="M283.4251 119.7438
L283.8251 120.4366
" />
<path d="M283.8251 120.4366
L281.1404 121.9866
" />
<path d="M284.2911 119.2438
L283.4251 119.7438
" />
<path d="M37.4438 58.8887
L38.2438 58.8887
" />
<path d="M37.4438 61.9887
L37.4438 58.8887
" />
<path d="M37.4438 67.7887
L38.2438 67.7887
" />
<path d="M37.4438 70.8887
L37.4438 67.7887
" />
<path d="M38.2438 57.8887
L52.2438 57.8887
" />
<path d="M38.2438 58.8887
L38.2438 57.8887
" />
<path d="M38.2438 61.9887
L37.4438 61.9887
" />
<path d="M38.2438 67.7887
L38.2438 61.9887
" />
<path d="M38.2438 70.8887
L37.4438 70.8887
" />
<path d="M38.2438 71.8887
L38.2438 70.8887
" />
<path d="M52.2438 57.8887
L52.2438 58.8887
" />
<path d="M52.2438 58.8887
L53.0438 58.8887
" />
<path d="M52.2438 61.9887
L52.2438 67.7887
" />
<path d="M52.2438 67.7887
L53.0438 67.7887
" />
<path d="M52.2438 70.8887
L52.2438 71.8887
" />
<path d="M52.2438 71.8887
L38.2438 71.8887
" />
<path d="M53.0438 58.8887
L53.0438 61.9887
" />
<path d="M53.0438 61.9887
L52.2438 61.9887
" />
<path d="M53.0438 67.7887
L53.0438 70.8887
" />
<path d="M53.0438 70.8887
L52.2438 70.8887
" />
<path d="M388.5315 20.1940
L389.3315 20.1940
" />
<path d="M388.5315 23.2940
L388.5315 20.1940
" />
<path d="M388.5315 29.0940
L389.3315 29.0940
" />
<path d="M388.5315 32.1940
L388.5315 29.0940
" />
<path d="M389.3315 19.1940
L403.3315 19.1940
" />
<path d="M389.3315 20.1940
L389.3315 19.1940
" />
<path d="M389.3315 23.2940
L388.5315 23.2940
" />
<path d="M389.3315 29.0940
L389.3315 23.2940
" />
<path d="M389.3315 32.1940
L388.5315 32.1940
" />
<path d="M389.3315 33.1940
L389.3315 32.1940
" />
<path d="M403.3315 19.1940
L403.3315 20.1940
" />
<path d="M403.3315 20.1940
L404.1315 20.1940
" />
<path d="M403.3315 23.2940
L403.3315 29.0940
" />
<path d="M403.3315 29.0940
L404.1315 29.0940
" />
<path d="M403.3315 32.1940
L403.3315 33.1940
" />
<path d="M403.3315 33.1940
L389.3315 33.1940
" />
<path d="M404.1315 20.1940
L404.1315 23.2940
" />
<path d="M404.1315 23.2940
L403.3315 23.2940
" />
<path d="M404.1315 29.0940
L404.1315 32.1940
" />
<path d="M404.1315 32.1940
L403.3315 32.1940
" />
<path d="M151.7438 58.8887
L152.5438 58.8887
" />
<path d="M151.7438 61.9887
L151.7438 58.8887
" />
<path d="M151.7438 67.7887
L152.5438 67.7887
" />
<path d="M151.7438 70.8887
L151.7438 67.7887
" />
<path d="M152.5438 57.8887
L166.5438 57.8887
" />
<path d="M152.5438 58.8887
L152.5438 57.8887
" />
<path d="M152.5438 61.9887
L151.7438 61.9887
" />
<path d="M152.5438 67.7887
L152.5438 61.9887
" />
<path d="M152.5438 70.8887
L151.7438 70.8887
" />
<path d="M152.5438 71.8887
L152.5438 70.8887
" />
<path d="M166.5438 57.8887
L166.5438 58.8887
" />
<path d="M166.5438 58.8887
L167.3438 58.8887
" />
<path d="M166.5438 61.9887
L166.5438 67.7887
" />
<path d="M166.5438 67.7887
L167.3438 67.7887
" />
<path d="M166.5438 70.8887
L166.5438 71.8887
" />
<path d="M166.5438 71.8887
L152.5438 71.8887
" />
<path d="M167.3438 58.8887
L167.3438 61.9887
" />
<path d="M167.3438 61.9887
L166.5438 61.9887
" />
<path d="M167.3438 67.7887
L167.3438 70.8887
" />
<path d="M167.3438 70.8887
L166.5438 70.8887
" />
<path d="M274.2315 77.3440
L275.0315 77.3440
" />
<path d="M274.2315 80.4440
L274.2315 77.3440
" />
<path d="M274.2315 86.2440
L275.0315 86.2440
" />
<path d="M274.2315 89.3440
L274.2315 86.2440
" />
<path d="M275.0315 76.3440
L289.0315 76.3440
" />
<path d="M275.0315 77.3440
L275.0315 76.3440
" />
<path d="M275.0315 80.4440
L274.2315 80.4440
" />
<path d="M275.0315 86.2440
L275.0315 80.4440
" />
<path d="M275.0315 89.3440
L274.2315 89.3440
" />
<path d="M275.0315 90.3440
L275.0315 89.3440
" />
<path d="M289.0315 76.3440
L289.0315 77.3440
" />
<path d="M289.0315 77.3440
L289.8315 77.3440
" />
<path d="M289.0315 80.4440
L289.0315 86.2440
" />
<path d="M289.0315 86.2440
L289.8315 86.2440
" />
<path d="M289.0315 89.3440
L289.0315 90.3440
" />
<path d="M289.0315 90.3440
L275.0315 90.3440
" />
<path d="M289.8315 77.3440
L289.8315 80.4440
" />
<path d="M289.8315 80.4440
L289.0315 80.4440
" />
<path d="M289.8315 86.2440
L289.8315 89.3440
" />
<path d="M289.8315 89.3440
L289.0315 89.3440
" />
<path d="M56.4938 96.9887
L57.2938 96.9887
" />
<path d="M56.4938 100.0887
L56.4938 96.9887
" />
<path d="M56.4938 105.8887
L57.2938 105.8887
" />
<path d="M56.4938 108.9887
L56.4938 105.8887
" />
<path d="M57.2938 95.9887
L71.2938 95.9887
" />
<path d="M57.2938 96.9887
L57.2938 95.9887
" />
<path d="M57.2938 100.0887
L56.4938 100.0887
" />
<path d="M57.2938 105.8887
L57.2938 100.0887
" />
<path d="M57.2938 108.9887
L56.4938 108.9887
" />
<path d="M57.2938 109.9887
L57.2938 108.9887
" />
<path d="M71.2938 95.9887
L71.2938 96.9887
" />
<path d="M71.2938 96.9887
L72.0938 96.9887
" />
<path d="M71.2938 100.0887
L71.2938 105.8887
" />
<path d="M71.2938 105.8887
L72.0938 105.8887
" />
<path d="M71.2938 108.9887
L71.2938 109.9887
" />
<path d="M71.2938 109.9887
L57.2938 109.9887
" />
<path d="M72.0938 96.9887
L72.0938 100.0887
" />
<path d="M72.0938 100.0887
L71.2938 100.0887
" />
<path d="M72.0938 105.8887
L72.0938 108.9887
" />
<path d="M72.0938 108.9887
L71.2938 108.9887
" />
<path d="M350.4315 96.3940
L351.2315 96.3940
" />
<path d="M350.4315 99.4940
L350.4315 96.3940
" />
<path d="M350.4315 105.2940
L351.2315 105.2940
" />
<path d="M350.4315 108.3940
L350.4315 105.2940
" />
<path d="M351.2315 95.3940
L365.2315 95.3940
" />
<path d="M351.2315 96.3940
L351.2315 95.3940
" />
<path d="M351.2315 99.4940
L350.4315 99.4940
" />
<path d="M351.2315 105.2940
L351.2315 99.4940
" />
<path d="M351.2315 108.3940
L350.4315 108.3940
" />
<path d="M351.2315 109.3940
L351.2315 108.3940
" />
<path d="M365.2315 95.3940
L365.2315 96.3940
" />
<path d="M365.2315 96.3940
L366.0315 96.3940
" />
<path d="M365.2315 99.4940
L365.2315 105.2940
" />
<path d="M365.2315 105.2940
L366.0315 105.2940
" />
<path d="M365.2315 108.3940
L365.2315 109.3940
" />
<path d="M365.2315 109.3940
L351.2315 109.3940
" />
<path d="M366.0315 96.3940
L366.0315 99.4940
" />
<path d="M366.0315 99.4940
L365.2315 99.4940
" />
<path d="M366.0315 105.2940
L366.0315 108.3940
" />
<path d="M366.0315 108.3940
L365.2315 108.3940
" />
<path d="M132.6938 58.8887
L133.4938 58.8887
" />
<path d="M132.6938 61.9887
L132.6938 58.8887
" />
<path d="M132.6938 67.7887
L133.4938 67.7887
" />
<path d="M132.6938 70.8887
L132.6938 67.7887
" />
<path d="M133.4938 57.8887
L147.4938 57.8887
" />
<path d="M133.4938 58.8887
L133.4938 57.8887
" />
<path d="M133.4938 61.9887
L132.6938 61.9887
" />
<path d="M133.4938 67.7887
L133.4938 61.9887
" />
<path d="M133.4938 70.8887
L132.6938 70.8887
" />
<path d="M133.4938 71.8887
L133.4938 70.8887
" />
<path d="M147.4938 57.8887
L147.4938 58.8887
" />
<path d="M147.4938 58.8887
L148.2938 58.8887
" />
<path d="M147.4938 61.9887
L147.4938 67.7887
" />
<path d="M147.4938 67.7887
L148.2938 67.7887
" />
<path d="M147.4938 70.8887
L147.4938 71.8887
" />
<path d="M147.4938 71.8887
L133.4938 71.8887
" />
<path d="M148.2938 58.8887
L148.2938 61.9887
" />
<path d="M148.2938 61.9887
L147.4938 61.9887
" />
<path d="M148.2938 67.7887
L148.2938 70.8887
" />
<path d="M148.2938 70.8887
L147.4938 70.8887
" />
<path d="M293.2815 72.5815
L294.0815 72.5815
" />
<path d="M293.2815 75.6815
L293.2815 72.5815
" />
<path d="M293.2815 81.4815
L294.0815 81.4815
" />
<path d="M293.2815 84.5815
L293.2815 81.4815
" />
<path d="M294.0815 71.5815
L308.0815 71.5815
" />
<path d="M294.0815 72.5815
L294.0815 71.5815
" />
<path d="M294.0815 75.6815
L293.2815 75.6815
" />
<path d="M294.0815 81.4815
L294.0815 75.6815
" />
<path d="M294.0815 84.5815
L293.2815 84.5815
" />
<path d="M294.0815 85.5815
L294.0815 84.5815
" />
<path d="M308.0815 71.5815
L308.0815 72.5815
" />
<path d="M308.0815 72.5815
L308.8815 72.5815
" />
<path d="M308.0815 75.6815
L308.0815 81.4815
" />
<path d="M308.0815 81.4815
L308.8815 81.4815
" />
<path d="M308.0815 84.5815
L308.0815 85.5815
" />
<path d="M308.0815 85.5815
L294.0815 85.5815
" />
<path d="M308.8815 72.5815
L308.8815 75.6815
" />
<path d="M308.8815 75.6815
L308.0815 75.6815
" />
<path d="M308.8815 81.4815
L308.8815 84.5815
" />
<path d="M308.8815 84.5815
L308.0815 84.5815
" />
<path d="M137.9166 119.4753
L144.9166 107.3510
" />
<path d="M138.3826 120.6681
L138.7826 119.9753
" />
<path d="M138.7826 119.9753
L137.9166 119.4753
" />
<path d="M141.0673 122.2181
L138.3826 120.6681
" />
<path d="M141.4673 121.5253
L141.0673 122.2181
" />
<path d="M144.9166 107.3510
L145.7826 107.8510
" />
<path d="M145.7826 107.8510
L146.1826 107.1581
" />
<path d="M146.0902 125.1181
L146.4902 124.4253
" />
<path d="M146.1826 107.1581
L148.8673 108.7081
" />
<path d="M146.4902 124.4253
L141.4673 121.5253
" />
<path d="M148.4673 109.4010
L153.4902 112.3010
" />
<path d="M148.7749 126.6681
L146.0902 125.1181
" />
<path d="M148.8673 108.7081
L148.4673 109.4010
" />
<path d="M149.1749 125.9753
L148.7749 126.6681
" />
<path d="M150.0410 126.4753
L149.1749 125.9753
" />
<path d="M153.4902 112.3010
L153.8902 111.6081
" />
<path d="M153.8902 111.6081
L156.5749 113.1581
" />
<path d="M156.1749 113.8510
L157.0410 114.3510
" />
<path d="M156.5749 113.1581
L156.1749 113.8510
" />
<path d="M157.0410 114.3510
L150.0410 126.4753
" />
<path d="M388.5315 58.2940
L389.3315 58.2940
" />
<path d="M388.5315 61.3940
L388.5315 58.2940
" />
<path d="M388.5315 67.1940
L389.3315 67.1940
" />
<path d="M388.5315 70.2940
L388.5315 67.1940
" />
<path d="M389.3315 57.2940
L403.3315 57.2940
" />
<path d="M389.3315 58.2940
L389.3315 57.2940
" />
<path d="M389.3315 61.3940
L388.5315 61.3940
" />
<path d="M389.3315 67.1940
L389.3315 61.3940
" />
<path d="M389.3315 70.2940
L388.5315 70.2940
" />
<path d="M389.3315 71.2940
L389.3315 70.2940
" />
<path d="M403.3315 57.2940
L403.3315 58.2940
" />
<path d="M403.3315 58.2940
L404.1315 58.2940
" />
<path d="M403.3315 61.3940
L403.3315 67.1940
" />
<path d="M403.3315 67.1940
L404.1315 67.1940
" />
<path d="M403.3315 70.2940
L403.3315 71.2940
" />
<path d="M403.3315 71.2940
L389.3315 71.2940
" />
<path d="M404.1315 58.2940
L404.1315 61.3940
" />
<path d="M404.1315 61.3940
L403.3315 61.3940
" />
<path d="M404.1315 67.1940
L404.1315 70.2940
" />
<path d="M404.1315 70.2940
L403.3315 70.2940
" />
<path d="M371.4817 90.1141
L378.2317 90.1141
" />
<path d="M371.4817 77.8141
L371.4817 90.1141
" />
<path d="M378.2317 90.1141
L378.2317 77.8141
" />
<path d="M378.2317 77.8141
L371.4817 77.8141
" />
<path d="M395.3577 77.8141
L395.3577 90.1141
" />
<path d="M395.3577 90.1141
L402.1077 90.1141
" />
<path d="M402.1077 77.8141
L395.3577 77.8141
" />
<path d="M402.1077 90.1141
L402.1077 77.8141
" />
<path d="M274.2315 58.2940
L275.0315 58.2940
" />
<path d="M274.2315 61.3940
L274.2315 58.2940
" />
<path d="M274.2315 67.1940
L275.0315 67.1940
" />
<path d="M274.2315 70.2940
L274.2315 67.1940
" />
<path d="M275.0315 57.2940
L289.0315 57.2940
" />
<path d="M275.0315 58.2940
L275.0315 57.2940
" />
<path d="M275.0315 61.3940
L274.2315 61.3940
" />
<path d="M275.0315 67.1940
L275.0315 61.3940
" />
<path d="M275.0315 70.2940
L274.2315 70.2940
" />
<path d="M275.0315 71.2940
L275.0315 70.2940
" />
<path d="M289.0315 57.2940
L289.0315 58.2940
" />
<path d="M289.0315 58.2940
L289.8315 58.2940
" />
<path d="M289.0315 61.3940
L289.0315 67.1940
" />
<path d="M289.0315 67.1940
L289.8315 67.1940
" />
<path d="M289.0315 70.2940
L289.0315 71.2940
" />
<path d="M289.0315 71.2940
L275.0315 71.2940
" />
<path d="M289.8315 58.2940
L289.8315 61.3940
" />
<path d="M289.8315 61.3940
L289.0315 61.3940
" />
<path d="M289.8315 67.1940
L289.8315 70.2940
" />
<path d="M289.8315 70.2940
L289.0315 70.2940
" />
<path d="M331.3815 34.4815
L332.1815 34.4815
" />
<path d="M331.3815 37.5815
L331.3815 34.4815
" />
<path d="M331.3815 43.3815
L332.1815 43.3815
" />
<path d="M331.3815 46.4815
L331.3815 43.3815
" />
<path d="M332.1815 33.4815
L346.1815 33.4815
" />
<path d="M332.1815 34.4815
L332.1815 33.4815
" />
<path d="M332.1815 37.5815
L331.3815 37.5815
" />
<path d="M332.1815 43.3815
L332.1815 37.5815
" />
<path d="M332.1815 46.4815
L331.3815 46.4815
" />
<path d="M332.1815 47.4815
L332.1815 46.4815
" />
<path d="M346.1815 33.4815
L346.1815 34.4815
" />
<path d="M346.1815 34.4815
L346.9815 34.4815
" />
<path d="M346.1815 37.5815
L346.1815 43.3815
" />
<path d="M346.1815 43.3815
L346.9815 43.3815
" />
<path d="M346.1815 46.4815
L346.1815 47.4815
" />
<path d="M346.1815 47.4815
L332.1815 47.4815
" />
<path d="M346.9815 34.4815
L346.9815 37.5815
" />
<path d="M346.9815 37.5815
L346.1815 37.5815
" />
<path d="M346.9815 43.3815
L346.9815 46.4815
" />
<path d="M346.9815 46.4815
L346.1815 46.4815
" />
<path d="M56.4938 20.7887
L57.2938 20.7887
" />
<path d="M56.4938 23.8887
L56.4938 20.7887
" />
<path d="M56.4938 29.6887
L57.2938 29.6887
" />
<path d="M56.4938 32.7887
L56.4938 29.6887
" />
<path d="M57.2938 19.7887
L71.2938 19.7887
" />
<path d="M57.2938 20.7887
L57.2938 19.7887
" />
<path d="M57.2938 23.8887
L56.4938 23.8887
" />
<path d="M57.2938 29.6887
L57.2938 23.8887
" />
<path d="M57.2938 32.7887
L56.4938 32.7887
" />
<path d="M57.2938 33.7887
L57.2938 32.7887
" />
<path d="M71.2938 19.7887
L71.2938 20.7887
" />
<path d="M71.2938 20.7887
L72.0938 20.7887
" />
<path d="M71.2938 23.8887
L71.2938 29.6887
" />
<path d="M71.2938 29.6887
L72.0938 29.6887
" />
<path d="M71.2938 32.7887
L71.2938 33.7887
" />
<path d="M71.2938 33.7887
L57.2938 33.7887
" />
<path d="M72.0938 20.7887
L72.0938 23.8887
" />
<path d="M72.0938 23.8887
L71.2938 23.8887
" />
<path d="M72.0938 29.6887
L72.0938 32.7887
" />
<path d="M72.0938 32.7887
L71.2938 32.7887
" />
<path d="M94.5938 30.3137
L95.3938 30.3137
" />
<path d="M94.5938 33.4137
L94.5938 30.3137
" />
<path d="M94.5938 39.2137
L95.3938 39.2137
" />
<path d="M94.5938 42.3137
L94.5938 39.2137
" />
<path d="M95.3938 29.3137
L109.3938 29.3137
" />
<path d="M95.3938 30.3137
L95.3938 29.3137
" />
<path d="M95.3938 33.4137
L94.5938 33.4137
" />
<path d="M95.3938 39.2137
L95.3938 33.4137
" />
<path d="M95.3938 42.3137
L94.5938 42.3137
" />
<path d="M95.3938 43.3137
L95.3938 42.3137
" />
<path d="M109.3938 29.3137
L109.3938 30.3137
" />
<path d="M109.3938 30.3137
L110.1938 30.3137
" />
<path d="M109.3938 33.4137
L109.3938 39.2137
" />
<path d="M109.3938 39.2137
L110.1938 39.2137
" />
<path d="M109.3938 42.3137
L109.3938 43.3137
" />
<path d="M109.3938 43.3137
L95.3938 43.3137
" />
<path d="M110.1938 30.3137
L110.1938 33.4137
" />
<path d="M110.1938 33.4137
L109.3938 33.4137
" />
<path d="M110.1938 39.2137
L110.1938 42.3137
" />
<path d="M110.1938 42.3137
L109.3938 42.3137
" />
<path d="M132.6938 39.8387
L133.4938 39.8387
" />
<path d="M132.6938 42.9387
L132.6938 39.8387
" />
<path d="M132.6938 48.7387
L133.4938 48.7387
" />
<path d="M132.6938 51.8387
L132.6938 48.7387
" />
<path d="M133.4938 38.8387
L147.4938 38.8387
" />
<path d="M133.4938 39.8387
L133.4938 38.8387
" />
<path d="M133.4938 42.9387
L132.6938 42.9387
" />
<path d="M133.4938 48.7387
L133.4938 42.9387
" />
<path d="M133.4938 51.8387
L132.6938 51.8387
" />
<path d="M133.4938 52.8387
L133.4938 51.8387
" />
<path d="M147.4938 38.8387
L147.4938 39.8387
" />
<path d="M147.4938 39.8387
L148.2938 39.8387
" />
<path d="M147.4938 42.9387
L147.4938 48.7387
" />
<path d="M147.4938 48.7387
L148.2938 48.7387
" />
<path d="M147.4938 51.8387
L147.4938 52.8387
" />
<path d="M147.4938 52.8387
L133.4938 52.8387
" />
<path d="M148.2938 39.8387
L148.2938 42.9387
" />
<path d="M148.2938 42.9387
L147.4938 42.9387
" />
<path d="M148.2938 48.7387
L148.2938 51.8387
" />
<path d="M148.2938 51.8387
L147.4938 51.8387
" />
<path d="M94.5938 87.4637
L95.3938 87.4637
" />
<path d="M94.5938 90.5637
L94.5938 87.4637
" />
<path d="M94.5938 96.3637
L95.3938 96.3637
" />
<path d="M94.5938 99.4637
L94.5938 96.3637
" />
<path d="M95.3938 86.4637
L109.3938 86.4637
" />
<path d="M95.3938 87.4637
L95.3938 86.4637
" />
<path d="M95.3938 90.5637
L94.5938 90.5637
" />
<path d="M95.3938 96.3637
L95.3938 90.5637
" />
<path d="M95.3938 99.4637
L94.5938 99.4637
" />
<path d="M95.3938 100.4637
L95.3938 99.4637
" />
<path d="M109.3938 86.4637
L109.3938 87.4637
" />
<path d="M109.3938 87.4637
L110.1938 87.4637
" />
<path d="M109.3938 90.5637
L109.3938 96.3637
" />
<path d="M109.3938 96.3637
L110.1938 96.3637
" />
<path d="M109.3938 99.4637
L109.3938 100.4637
" />
<path d="M109.3938 100.4637
L95.3938 100.4637
" />
<path d="M110.1938 87.4637
L110.1938 90.5637
" />
<path d="M110.1938 90.5637
L109.3938 90.5637
" />
<path d="M110.1938 96.3637
L110.1938 99.4637
" />
<path d="M110.1938 99.4637
L109.3938 99.4637
" />
<path d="M94.5938 11.2637
L95.3938 11.2637
" />
<path d="M94.5938 14.3637
L94.5938 11.2637
" />
<path d="M94.5938 20.1637
L95.3938 20.1637
" />
<path d="M94.5938 23.2637
L94.5938 20.1637
" />
<path d="M95.3938 10.2637
L109.3938 10.2637
" />
<path d="M95.3938 11.2637
L95.3938 10.2637
" />
<path d="M95.3938 14.3637
L94.5938 14.3637
" />
<path d="M95.3938 20.1637
L95.3938 14.3637
" />
<path d="M95.3938 23.2637
L94.5938 23.2637
" />
<path d="M95.3938 24.2637
L95.3938 23.2637
" />
<path d="M109.3938 10.2637
L109.3938 11.2637
" />
<path d="M109.3938 11.2637
L110.1938 11.2637
" />
<path d="M109.3938 14.3637
L109.3938 20.1637
" />
<path d="M109.3938 20.1637
L110.1938 20.1637
" />
<path d="M109.3938 23.2637
L109.3938 24.2637
" />
<path d="M109.3938 24.2637
L95.3938 24.2637
" />
<path d="M110.1938 11.2637
L110.1938 14.3637
" />
<path d="M110.1938 14.3637
L109.3938 14.3637
" />
<path d="M110.1938 20.1637
L110.1938 23.2637
" />
<path d="M110.1938 23.2637
L109.3938 23.2637
" />
<path d="M350.4315 20.1940
L351.2315 20.1940
" />
<path d="M350.4315 23.2940
L350.4315 20.1940
" />
<path d="M350.4315 29.0940
L351.2315 29.0940
" />
<path d="M350.4315 32.1940
L350.4315 29.0940
" />
<path d="M351.2315 19.1940
L365.2315 19.1940
" />
<path d="M351.2315 20.1940
L351.2315 19.1940
" />
<path d="M351.2315 23.2940
L350.4315 23.2940
" />
<path d="M351.2315 29.0940
L351.2315 23.2940
" />
<path d="M351.2315 32.1940
L350.4315 32.1940
" />
<path d="M351.2315 33.1940
L351.2315 32.1940
" />
<path d="M365.2315 19.1940
L365.2315 20.1940
" />
<path d="M365.2315 20.1940
L366.0315 20.1940
" />
<path d="M365.2315 23.2940
L365.2315 29.0940
" />
<path d="M365.2315 29.0940
L366.0315 29.0940
" />
<path d="M365.2315 32.1940
L365.2315 33.1940
" />
<path d="M365.2315 33.1940
L351.2315 33.1940
" />
<path d="M366.0315 20.1940
L366.0315 23.2940
" />
<path d="M366.0315 23.2940
L365.2315 23.2940
" />
<path d="M366.0315 29.0940
L366.0315 32.1940
" />
<path d="M366.0315 32.1940
L365.2315 32.1940
" />
<path d="M331.3815 72.5815
L332.1815 72.5815
" />
<path d="M331.3815 75.6815
L331.3815 72.5815
" />
<path d="M331.3815 81.4815
L332.1815 81.4815
" />
<path d="M331.3815 84.5815
L331.3815 81.4815
" />
<path d="M332.1815 71.5815
L346.1815 71.5815
" />
<path d="M332.1815 72.5815
L332.1815 71.5815
" />
<path d="M332.1815 75.6815
L331.3815 75.6815
" />
<path d="M332.1815 81.4815
L332.1815 75.6815
" />
<path d="M332.1815 84.5815
L331.3815 84.5815
" />
<path d="M332.1815 85.5815
L332.1815 84.5815
" />
<path d="M346.1815 71.5815
L346.1815 72.5815
" />
<path d="M346.1815 72.5815
L346.9815 72.5815
" />
<path d="M346.1815 75.6815
L346.1815 81.4815
" />
<path d="M346.1815 81.4815
L346.9815 81.4815
" />
<path d="M346.1815 84.5815
L346.1815 85.5815
" />
<path d="M346.1815 85.5815
L332.1815 85.5815
" />
<path d="M346.9815 72.5815
L346.9815 75.6815
" />
<path d="M346.9815 75.6815
L346.1815 75.6815
" />
<path d="M346.9815 81.4815
L346.9815 84.5815
" />
<path d="M346.9815 84.5815
L346.1815 84.5815
" />
</g>
<g style="fill:none; 
stroke:#000000; stroke-width:0.0500; stroke-opacity:1; 
stroke-linecap:round; stroke-linejoin:round;">
<path d="M329.2157 111.9190
L348.2657 116.6815
" />
<path d="M208.3595 65.4847
L208.3595 19.3785
" />
<path d="M214.3127 65.4847
L214.3127 19.0503
" />
<path d="M219.6782 71.4378
L214.3127 65.4847
" />
<path d="M92.8688 111.9190
L73.8188 116.6815
" />
<path d="M310.1657 111.9190
L329.2157 111.9190
" />
<path d="M219.6782 71.4378
L219.6782 102.0965
" />
<path d="M21.4313 116.6815
L11.9063 107.1565
" />
<path d="M88.1063 7.1440
L92.8688 2.3815
" />
<path d="M413.1548 111.3237
L413.1472 16.0737
" />
<path d="M73.8188 116.6815
L21.4313 116.6815
" />
<path d="M214.3127 19.0503
L224.4407 14.5015
" />
<path d="M253.0157 11.9065
L240.8007 14.5015
" />
<path d="M257.1828 151.8052
L300.6407 126.2065
" />
<path d="M219.6782 102.0965
L249.7413 153.8889
" />
<path d="M164.9017 151.8052
L172.3432 153.8889
" />
<path d="M405.4157 11.9065
L353.0282 11.9065
" />
<path d="M333.9782 7.1440
L329.2157 2.3815
" />
<path d="M400.6532 116.6815
L413.1548 111.3237
" />
<path d="M310.1657 2.3815
L305.4032 7.1440
" />
<path d="M181.2838 14.5015
L197.6438 14.5015
" />
<path d="M11.9063 21.4315
L16.6688 11.9065
" />
<path d="M73.8188 7.1440
L88.1063 7.1440
" />
<path d="M202.4064 71.4378
L202.4063 102.0966
" />
<path d="M111.9188 111.9190
L92.8688 111.9190
" />
<path d="M135.7313 11.9065
L169.0688 11.9065
" />
<path d="M202.4063 102.0965
L172.3432 153.8889
" />
<path d="M116.6813 7.1440
L130.9688 7.1440
" />
<path d="M305.4032 7.1440
L291.1157 7.1440
" />
<path d="M121.4438 126.2065
L111.9188 111.9190
" />
<path d="M69.0563 11.9065
L73.8188 7.1440
" />
<path d="M286.3532 11.9065
L253.0157 11.9065
" />
<path d="M353.0282 11.9065
L348.2657 7.1440
" />
<path d="M169.0688 11.9065
L181.2838 14.5015
" />
<path d="M300.6407 126.2065
L310.1657 111.9190
" />
<path d="M413.1472 16.0737
L405.4157 11.9065
" />
<path d="M329.2157 2.3815
L310.1657 2.3815
" />
<path d="M348.2657 7.1440
L333.9782 7.1440
" />
<path d="M130.9688 7.1440
L135.7313 11.9065
" />
<path d="M92.8688 2.3815
L111.9188 2.3815
" />
<path d="M197.6438 14.5015
L208.3595 19.3785
" />
<path d="M16.6688 11.9065
L69.0563 11.9065
" />
<path d="M291.1157 7.1440
L286.3532 11.9065
" />
<path d="M111.9188 2.3815
L116.6813 7.1440
" />
<path d="M348.2657 116.6815
L400.6532 116.6815
" />
<path d="M164.9017 151.8052
L121.4438 126.2065
" />
<path d="M202.4064 71.4378
L208.3595 65.4847
" />
<path d="M11.9063 107.1565
L11.9063 21.4315
" />
<path d="M257.1828 151.8052
L249.7413 153.8889
" />
<path d="M240.8007 14.5015
L224.4407 14.5015
" />
</g>
<g style="fill:none; 
stroke:#000000; stroke-width:0.1200; stroke-opacity:1; 
stroke-linecap:round; stroke-linejoin:round;">
<path d="M299.5284 101.4894
L299.5284 104.4894
" />
<path d="M299.5284 104.4894
L302.9284 104.4894
" />
<path d="M302.9284 101.4894
L299.5284 101.4894
" />
<path d="M302.9284 104.4894
L302.9284 101.4894
" />
<path d="M299.5284 63.3894
L299.5284 66.3894
" />
<path d="M299.5284 66.3894
L302.9284 66.3894
" />
<path d="M302.9284 63.3894
L299.5284 63.3894
" />
<path d="M302.9284 66.3894
L302.9284 63.3894
" />
<path d="M337.6284 44.3393
L337.6284 47.3393
" />
<path d="M337.6284 47.3393
L341.0284 47.3393
" />
<path d="M341.0284 44.3393
L337.6284 44.3393
" />
<path d="M341.0284 47.3393
L341.0284 44.3393
" />
<path d="M318.3596 39.5768
L318.3596 42.5768
" />
<path d="M318.3596 42.5768
L321.7596 42.5768
" />
<path d="M321.7596 39.5768
L318.3596 39.5768
" />
<path d="M321.7596 42.5768
L321.7596 39.5768
" />
<path d="M100.6938 21.1217
L100.6938 24.1217
" />
<path d="M100.6938 24.1217
L104.0938 24.1217
" />
<path d="M104.0938 21.1217
L100.6938 21.1217
" />
<path d="M104.0938 24.1217
L104.0938 21.1217
" />
<path d="M119.7439 83.0343
L119.7439 86.0343
" />
<path d="M119.7439 86.0343
L123.1439 86.0343
" />
<path d="M123.1439 83.0343
L119.7439 83.0343
" />
<path d="M123.1439 86.0343
L123.1439 83.0343
" />
<path d="M43.5438 30.6467
L43.5438 33.6467
" />
<path d="M43.5438 33.6467
L46.9438 33.6467
" />
<path d="M46.9438 30.6467
L43.5438 30.6467
" />
<path d="M46.9438 33.6467
L46.9438 30.6467
" />
<path d="M138.7939 87.7968
L138.7939 90.7968
" />
<path d="M138.7939 90.7968
L142.1939 90.7968
" />
<path d="M142.1939 87.7968
L138.7939 87.7968
" />
<path d="M142.1939 90.7968
L142.1939 87.7968
" />
<path d="M337.6284 25.2893
L337.6284 28.2893
" />
<path d="M337.6284 28.2893
L341.0284 28.2893
" />
<path d="M341.0284 25.2893
L337.6284 25.2893
" />
<path d="M341.0284 28.2893
L341.0284 25.2893
" />
<path d="M299.5284 25.2893
L299.5284 28.2893
" />
<path d="M299.5284 28.2893
L302.9284 28.2893
" />
<path d="M302.9284 25.2893
L299.5284 25.2893
" />
<path d="M302.9284 28.2893
L302.9284 25.2893
" />
<path d="M375.7284 106.2519
L375.7284 109.2519
" />
<path d="M375.7284 109.2519
L379.1284 109.2519
" />
<path d="M379.1284 106.2519
L375.7284 106.2519
" />
<path d="M379.1284 109.2519
L379.1284 106.2519
" />
<path d="M318.5784 77.6769
L318.5784 80.6769
" />
<path d="M318.5784 80.6769
L321.9784 80.6769
" />
<path d="M321.9784 77.6769
L318.5784 77.6769
" />
<path d="M321.9784 80.6769
L321.9784 77.6769
" />
<path d="M149.6558 120.3804
L152.2539 121.8804
" />
<path d="M151.3558 117.4359
L149.6558 120.3804
" />
<path d="M152.2539 121.8804
L153.9539 118.9359
" />
<path d="M153.9539 118.9359
L151.3558 117.4359
" />
<path d="M119.7439 25.8842
L119.7439 28.8842
" />
<path d="M119.7439 28.8842
L123.1439 28.8842
" />
<path d="M123.1439 25.8842
L119.7439 25.8842
" />
<path d="M123.1439 28.8842
L123.1439 25.8842
" />
<path d="M138.7939 30.4920
L138.7939 33.4920
" />
<path d="M138.7939 33.4920
L142.1939 33.4920
" />
<path d="M142.1939 30.4920
L138.7939 30.4920
" />
<path d="M142.1939 33.4920
L142.1939 30.4920
" />
<path d="M138.7939 49.6972
L138.7939 52.6972
" />
<path d="M138.7939 52.6972
L142.1939 52.6972
" />
<path d="M142.1939 49.6972
L138.7939 49.6972
" />
<path d="M142.1939 52.6972
L142.1939 49.6972
" />
<path d="M119.7439 102.0843
L119.7439 105.0843
" />
<path d="M119.7439 105.0843
L123.1439 105.0843
" />
<path d="M123.1439 102.0843
L119.7439 102.0843
" />
<path d="M123.1439 105.0843
L123.1439 102.0843
" />
<path d="M157.8438 49.6967
L157.8438 52.6967
" />
<path d="M157.8438 52.6967
L161.2438 52.6967
" />
<path d="M161.2438 49.6967
L157.8438 49.6967
" />
<path d="M161.2438 52.6967
L161.2438 49.6967
" />
<path d="M385.2534 87.2019
L385.2534 90.2019
" />
<path d="M385.2534 90.2019
L388.6534 90.2019
" />
<path d="M388.6534 87.2019
L385.2534 87.2019
" />
<path d="M388.6534 90.2019
L388.6534 87.2019
" />
<path d="M318.5784 20.5268
L318.5784 23.5268
" />
<path d="M318.5784 23.5268
L321.9784 23.5268
" />
<path d="M321.9784 20.5268
L318.5784 20.5268
" />
<path d="M321.9784 23.5268
L321.9784 20.5268
" />
<path d="M100.6938 78.2718
L100.6938 81.2718
" />
<path d="M100.6938 81.2718
L104.0938 81.2718
" />
<path d="M104.0938 78.2718
L100.6938 78.2718
" />
<path d="M104.0938 81.2718
L104.0938 78.2718
" />
<path d="M337.6284 101.4894
L337.6284 104.4894
" />
<path d="M337.6284 104.4894
L341.0284 104.4894
" />
<path d="M341.0284 101.4894
L337.6284 101.4894
" />
<path d="M341.0284 104.4894
L341.0284 101.4894
" />
<path d="M119.7439 63.9842
L119.7439 66.9843
" />
<path d="M119.7439 66.9843
L123.1439 66.9843
" />
<path d="M123.1439 63.9842
L119.7439 63.9842
" />
<path d="M123.1439 66.9843
L123.1439 63.9842
" />
<path d="M280.4784 30.0518
L280.4784 33.0518
" />
<path d="M280.4784 33.0518
L283.8784 33.0518
" />
<path d="M283.8784 30.0518
L280.4784 30.0518
" />
<path d="M283.8784 33.0518
L283.8784 30.0518
" />
<path d="M62.5938 68.7468
L62.5938 71.7468
" />
<path d="M62.5938 71.7468
L65.9938 71.7468
" />
<path d="M65.9938 68.7468
L62.5938 68.7468
" />
<path d="M65.9938 71.7468
L65.9938 68.7468
" />
<path d="M280.4784 68.1519
L280.4784 71.1519
" />
<path d="M280.4784 71.1519
L283.8784 71.1519
" />
<path d="M283.8784 68.1519
L280.4784 68.1519
" />
<path d="M283.8784 71.1519
L283.8784 68.1519
" />
<path d="M299.5284 82.4394
L299.5284 85.4394
" />
<path d="M299.5284 85.4394
L302.9284 85.4394
" />
<path d="M302.9284 82.4394
L299.5284 82.4394
" />
<path d="M302.9284 85.4394
L302.9284 82.4394
" />
<path d="M157.8439 30.6467
L157.8439 33.6467
" />
<path d="M157.8439 33.6467
L161.2439 33.6467
" />
<path d="M161.2439 30.6467
L157.8439 30.6467
" />
<path d="M161.2439 33.6467
L161.2439 30.6467
" />
<path d="M394.7785 106.2519
L394.7785 109.2519
" />
<path d="M394.7785 109.2519
L398.1785 109.2519
" />
<path d="M398.1785 106.2519
L394.7785 106.2519
" />
<path d="M398.1785 109.2519
L398.1785 106.2519
" />
<path d="M261.4283 68.1519
L261.4283 71.1519
" />
<path d="M261.4283 71.1519
L264.8283 71.1519
" />
<path d="M264.8283 68.1519
L261.4283 68.1519
" />
<path d="M264.8283 71.1519
L264.8283 68.1519
" />
<path d="M81.6438 63.9842
L81.6438 66.9843
" />
<path d="M81.6438 66.9843
L85.0438 66.9843
" />
<path d="M85.0438 63.9842
L81.6438 63.9842
" />
<path d="M85.0438 66.9843
L85.0438 63.9842
" />
<path d="M100.6938 97.3218
L100.6938 100.3218
" />
<path d="M100.6938 100.3218
L104.0938 100.3218
" />
<path d="M104.0938 97.3218
L100.6938 97.3218
" />
<path d="M104.0938 100.3218
L104.0938 97.3218
" />
<path d="M394.7785 30.0518
L394.7785 33.0518
" />
<path d="M394.7785 33.0518
L398.1785 33.0518
" />
<path d="M398.1785 30.0518
L394.7785 30.0518
" />
<path d="M398.1785 33.0518
L398.1785 30.0518
" />
<path d="M268.1231 118.3406
L269.8231 121.2851
" />
<path d="M269.8231 121.2851
L272.4211 119.7851
" />
<path d="M270.7211 116.8406
L268.1231 118.3406
" />
<path d="M272.4211 119.7851
L270.7211 116.8406
" />
<path d="M356.6784 49.1018
L356.6784 52.1018
" />
<path d="M356.6784 52.1018
L360.0784 52.1018
" />
<path d="M360.0784 49.1018
L356.6784 49.1018
" />
<path d="M360.0784 52.1018
L360.0784 49.1018
" />
<path d="M375.7284 49.1018
L375.7284 52.1018
" />
<path d="M375.7284 52.1018
L379.1284 52.1018
" />
<path d="M379.1284 49.1018
L375.7284 49.1018
" />
<path d="M379.1284 52.1018
L379.1284 49.1018
" />
<path d="M394.7785 68.1519
L394.7785 71.1519
" />
<path d="M394.7785 71.1519
L398.1785 71.1519
" />
<path d="M398.1785 68.1519
L394.7785 68.1519
" />
<path d="M398.1785 71.1519
L398.1785 68.1519
" />
<path d="M138.7939 68.7468
L138.7939 71.7468
" />
<path d="M138.7939 71.7468
L142.1939 71.7468
" />
<path d="M142.1939 68.7468
L138.7939 68.7468
" />
<path d="M142.1939 71.7468
L142.1939 68.7468
" />
<path d="M119.7439 44.7795
L119.7439 47.7795
" />
<path d="M119.7439 47.7795
L123.1439 47.7795
" />
<path d="M123.1439 44.7795
L119.7439 44.7795
" />
<path d="M123.1439 47.7795
L123.1439 44.7795
" />
<path d="M62.5938 30.6467
L62.5938 33.6467
" />
<path d="M62.5938 33.6467
L65.9938 33.6467
" />
<path d="M65.9938 30.6467
L62.5938 30.6467
" />
<path d="M65.9938 33.6467
L65.9938 30.6467
" />
<path d="M44.1391 87.7968
L44.1391 90.7968
" />
<path d="M44.1391 90.7968
L47.5391 90.7968
" />
<path d="M47.5391 87.7968
L44.1391 87.7968
" />
<path d="M47.5391 90.7968
L47.5391 87.7968
" />
<path d="M261.4283 49.1018
L261.4283 52.1018
" />
<path d="M261.4283 52.1018
L264.8283 52.1018
" />
<path d="M264.8283 49.1018
L261.4283 49.1018
" />
<path d="M264.8283 52.1018
L264.8283 49.1018
" />
<path d="M394.7785 49.1018
L394.7785 52.1018
" />
<path d="M394.7785 52.1018
L398.1785 52.1018
" />
<path d="M398.1785 49.1018
L394.7785 49.1018
" />
<path d="M398.1785 52.1018
L398.1785 49.1018
" />
<path d="M81.6438 102.0843
L81.6438 105.0843
" />
<path d="M81.6438 105.0843
L85.0438 105.0843
" />
<path d="M85.0438 102.0843
L81.6438 102.0843
" />
<path d="M85.0438 105.0843
L85.0438 102.0843
" />
<path d="M318.5784 96.7269
L318.5784 99.7269
" />
<path d="M318.5784 99.7269
L321.9784 99.7269
" />
<path d="M321.9784 96.7269
L318.5784 96.7269
" />
<path d="M321.9784 99.7269
L321.9784 96.7269
" />
<path d="M356.6784 30.0518
L356.6784 33.0518
" />
<path d="M356.6784 33.0518
L360.0784 33.0518
" />
<path d="M360.0784 30.0518
L356.6784 30.0518
" />
<path d="M360.0784 33.0518
L360.0784 30.0518
" />
<path d="M62.5938 106.8468
L62.5938 109.8468
" />
<path d="M62.5938 109.8468
L65.9938 109.8468
" />
<path d="M65.9938 106.8468
L62.5938 106.8468
" />
<path d="M65.9938 109.8468
L65.9938 106.8468
" />
<path d="M356.6784 106.2519
L356.6784 109.2519
" />
<path d="M356.6784 109.2519
L360.0784 109.2519
" />
<path d="M360.0784 106.2519
L356.6784 106.2519
" />
<path d="M360.0784 109.2519
L360.0784 106.2519
" />
<path d="M261.4283 87.2019
L261.4283 90.2019
" />
<path d="M261.4283 90.2019
L264.8283 90.2019
" />
<path d="M264.8283 87.2019
L261.4283 87.2019
" />
<path d="M264.8283 90.2019
L264.8283 87.2019
" />
<path d="M43.5438 68.7468
L43.5438 71.7468
" />
<path d="M43.5438 71.7468
L46.9438 71.7468
" />
<path d="M46.9438 68.7468
L43.5438 68.7468
" />
<path d="M46.9438 71.7468
L46.9438 68.7468
" />
<path d="M62.5938 87.7968
L62.5938 90.7968
" />
<path d="M62.5938 90.7968
L65.9938 90.7968
" />
<path d="M65.9938 87.7968
L62.5938 87.7968
" />
<path d="M65.9938 90.7968
L65.9938 87.7968
" />
<path d="M81.6438 83.0343
L81.6438 86.0343
" />
<path d="M81.6438 86.0343
L85.0438 86.0343
" />
<path d="M85.0438 83.0343
L81.6438 83.0343
" />
<path d="M85.0438 86.0343
L85.0438 83.0343
" />
<path d="M356.6784 68.1519
L356.6784 71.1519
" />
<path d="M356.6784 71.1519
L360.0784 71.1519
" />
<path d="M360.0784 68.1519
L356.6784 68.1519
" />
<path d="M360.0784 71.1519
L360.0784 68.1519
" />
<path d="M356.6784 87.2019
L356.6784 90.2019
" />
<path d="M356.6784 90.2019
L360.0784 90.2019
" />
<path d="M360.0784 87.2019
L356.6784 87.2019
" />
<path d="M360.0784 90.2019
L360.0784 87.2019
" />
<path d="M81.6438 25.8842
L81.6438 28.8842
" />
<path d="M81.6438 28.8842
L85.0438 28.8842
" />
<path d="M85.0438 25.8842
L81.6438 25.8842
" />
<path d="M85.0438 28.8842
L85.0438 25.8842
" />
<path d="M81.6438 44.9342
L81.6438 47.9342
" />
<path d="M81.6438 47.9342
L85.0438 47.9342
" />
<path d="M85.0438 44.9342
L81.6438 44.9342
" />
<path d="M85.0438 47.9342
L85.0438 44.9342
" />
<path d="M157.8439 68.7468
L157.8439 71.7468
" />
<path d="M157.8439 71.7468
L161.2439 71.7468
" />
<path d="M161.2439 68.7468
L157.8439 68.7468
" />
<path d="M161.2439 71.7468
L161.2439 68.7468
" />
<path d="M299.5284 44.3393
L299.5284 47.3393
" />
<path d="M299.5284 47.3393
L302.9284 47.3393
" />
<path d="M302.9284 44.3393
L299.5284 44.3393
" />
<path d="M302.9284 47.3393
L302.9284 44.3393
" />
<path d="M337.6284 82.4394
L337.6284 85.4394
" />
<path d="M337.6284 85.4394
L341.0284 85.4394
" />
<path d="M341.0284 82.4394
L337.6284 82.4394
" />
<path d="M341.0284 85.4394
L341.0284 82.4394
" />
<path d="M100.6938 40.1717
L100.6938 43.1717
" />
<path d="M100.6938 43.1717
L104.0938 43.1717
" />
<path d="M104.0938 40.1717
L100.6938 40.1717
" />
<path d="M104.0938 43.1717
L104.0938 40.1717
" />
<path d="M318.5784 58.6269
L318.5784 61.6269
" />
<path d="M318.5784 61.6269
L321.9784 61.6269
" />
<path d="M321.9784 58.6269
L318.5784 58.6269
" />
<path d="M321.9784 61.6269
L321.9784 58.6269
" />
<path d="M43.5438 49.6967
L43.5438 52.6967
" />
<path d="M43.5438 52.6967
L46.9438 52.6967
" />
<path d="M46.9438 49.6967
L43.5438 49.6967
" />
<path d="M46.9438 52.6967
L46.9438 49.6967
" />
<path d="M100.6938 59.2217
L100.6938 62.2217
" />
<path d="M100.6938 62.2217
L104.0938 62.2217
" />
<path d="M104.0938 59.2217
L100.6938 59.2217
" />
<path d="M104.0938 62.2217
L104.0938 59.2217
" />
<path d="M261.0518 29.8971
L261.0518 32.8971
" />
<path d="M261.0518 32.8971
L264.4518 32.8971
" />
<path d="M264.4518 29.8971
L261.0518 29.8971
" />
<path d="M264.4518 32.8971
L264.4518 29.8971
" />
<path d="M43.5438 106.8468
L43.5438 109.8468
" />
<path d="M43.5438 109.8468
L46.9438 109.8468
" />
<path d="M46.9438 106.8468
L43.5438 106.8468
" />
<path d="M46.9438 109.8468
L46.9438 106.8468
" />
<path d="M62.5938 49.6967
L62.5938 52.6967
" />
<path d="M62.5938 52.6967
L65.9938 52.6967
" />
<path d="M65.9938 49.6967
L62.5938 49.6967
" />
<path d="M65.9938 52.6967
L65.9938 49.6967
" />
<path d="M337.6284 63.3894
L337.6284 66.3894
" />
<path d="M337.6284 66.3894
L341.0284 66.3894
" />
<path d="M341.0284 63.3894
L337.6284 63.3894
" />
<path d="M341.0284 66.3894
L341.0284 63.3894
" />
<path d="M375.7284 68.1519
L375.7284 71.1519
" />
<path d="M375.7284 71.1519
L379.1284 71.1519
" />
<path d="M379.1284 68.1519
L375.7284 68.1519
" />
<path d="M379.1284 71.1519
L379.1284 68.1519
" />
<path d="M157.8439 87.7968
L157.8439 90.7968
" />
<path d="M157.8439 90.7968
L161.2439 90.7968
" />
<path d="M161.2439 87.7968
L157.8439 87.7968
" />
<path d="M161.2439 90.7968
L161.2439 87.7968
" />
<path d="M375.7284 30.0518
L375.7284 33.0518
" />
<path d="M375.7284 33.0518
L379.1284 33.0518
" />
<path d="M379.1284 30.0518
L375.7284 30.0518
" />
<path d="M379.1284 33.0518
L379.1284 30.0518
" />
<path d="M280.4784 87.2019
L280.4784 90.2019
" />
<path d="M280.4784 90.2019
L283.8784 90.2019
" />
<path d="M283.8784 87.2019
L280.4784 87.2019
" />
<path d="M283.8784 90.2019
L283.8784 87.2019
" />
<path d="M280.4784 49.1018
L280.4784 52.1018
" />
<path d="M280.4784 52.1018
L283.8784 52.1018
" />
<path d="M283.8784 49.1018
L280.4784 49.1018
" />
<path d="M283.8784 52.1018
L283.8784 49.1018
" />
</g> 
</svg>
