<?xml version="1.0" standalone="no"?>
 <!DOCTYPE svg PUBLIC "-//W3C//DTD SVG 1.1//EN" 
 "http://www.w3.org/Graphics/SVG/1.1/DTD/svg11.dtd"> 
<svg
  xmlns:svg="http://www.w3.org/2000/svg"
  xmlns="http://www.w3.org/2000/svg"
  xmlns:xlink="http://www.w3.org/1999/xlink"
  version="1.1"
  width="419.9890mm" height="297.0022mm" viewBox="0.0000 0.0000 419.9890 297.0022">
<title>SVG Image created as hackboard-Edge_Cuts.svg date 2025/05/28 00:25:43 </title>
  <desc>Image generated by PCBNEW </desc>
<g style="fill:#000000; fill-opacity:1.0000;stroke:#000000; stroke-opacity:1.0000;
stroke-linecap:round; stroke-linejoin:round;"
 transform="translate(0 0) scale(1 1)">
</g>
<g style="fill:none; 
stroke:#000000; stroke-width:0.0500; stroke-opacity:1; 
stroke-linecap:round; stroke-linejoin:round;">
<path d="M329.2157 111.9190
L348.2657 116.6815
" />
<path d="M208.3595 65.4847
L208.3595 19.3785
" />
<path d="M214.3127 65.4847
L214.3127 19.0503
" />
<path d="M219.6782 71.4378
L214.3127 65.4847
" />
<path d="M92.8688 111.9190
L73.8188 116.6815
" />
<path d="M310.1657 111.9190
L329.2157 111.9190
" />
<path d="M219.6782 71.4378
L219.6782 102.0965
" />
<path d="M21.4313 116.6815
L11.9063 107.1565
" />
<path d="M88.1063 7.1440
L92.8688 2.3815
" />
<path d="M413.1548 111.3237
L413.1472 16.0737
" />
<path d="M73.8188 116.6815
L21.4313 116.6815
" />
<path d="M214.3127 19.0503
L224.4407 14.5015
" />
<path d="M253.0157 11.9065
L240.8007 14.5015
" />
<path d="M257.1828 151.8052
L300.6407 126.2065
" />
<path d="M219.6782 102.0965
L249.7413 153.8889
" />
<path d="M164.9017 151.8052
L172.3432 153.8889
" />
<path d="M405.4157 11.9065
L353.0282 11.9065
" />
<path d="M333.9782 7.1440
L329.2157 2.3815
" />
<path d="M400.6532 116.6815
L413.1548 111.3237
" />
<path d="M310.1657 2.3815
L305.4032 7.1440
" />
<path d="M181.2838 14.5015
L197.6438 14.5015
" />
<path d="M11.9063 21.4315
L16.6688 11.9065
" />
<path d="M73.8188 7.1440
L88.1063 7.1440
" />
<path d="M202.4064 71.4378
L202.4063 102.0966
" />
<path d="M111.9188 111.9190
L92.8688 111.9190
" />
<path d="M135.7313 11.9065
L169.0688 11.9065
" />
<path d="M202.4063 102.0965
L172.3432 153.8889
" />
<path d="M116.6813 7.1440
L130.9688 7.1440
" />
<path d="M305.4032 7.1440
L291.1157 7.1440
" />
<path d="M121.4438 126.2065
L111.9188 111.9190
" />
<path d="M69.0563 11.9065
L73.8188 7.1440
" />
<path d="M286.3532 11.9065
L253.0157 11.9065
" />
<path d="M353.0282 11.9065
L348.2657 7.1440
" />
<path d="M169.0688 11.9065
L181.2838 14.5015
" />
<path d="M300.6407 126.2065
L310.1657 111.9190
" />
<path d="M413.1472 16.0737
L405.4157 11.9065
" />
<path d="M329.2157 2.3815
L310.1657 2.3815
" />
<path d="M348.2657 7.1440
L333.9782 7.1440
" />
<path d="M130.9688 7.1440
L135.7313 11.9065
" />
<path d="M92.8688 2.3815
L111.9188 2.3815
" />
<path d="M197.6438 14.5015
L208.3595 19.3785
" />
<path d="M16.6688 11.9065
L69.0563 11.9065
" />
<path d="M291.1157 7.1440
L286.3532 11.9065
" />
<path d="M111.9188 2.3815
L116.6813 7.1440
" />
<path d="M348.2657 116.6815
L400.6532 116.6815
" />
<path d="M164.9017 151.8052
L121.4438 126.2065
" />
<path d="M202.4064 71.4378
L208.3595 65.4847
" />
<path d="M11.9063 107.1565
L11.9063 21.4315
" />
<path d="M257.1828 151.8052
L249.7413 153.8889
" />
<path d="M240.8007 14.5015
L224.4407 14.5015
" />
</g>
<g style="fill:none; 
stroke:#000000; stroke-width:0.1200; stroke-opacity:1; 
stroke-linecap:round; stroke-linejoin:round;">
<path d="M299.5284 101.4894
L299.5284 104.4894
" />
<path d="M299.5284 104.4894
L302.9284 104.4894
" />
<path d="M302.9284 101.4894
L299.5284 101.4894
" />
<path d="M302.9284 104.4894
L302.9284 101.4894
" />
<path d="M299.5284 63.3894
L299.5284 66.3894
" />
<path d="M299.5284 66.3894
L302.9284 66.3894
" />
<path d="M302.9284 63.3894
L299.5284 63.3894
" />
<path d="M302.9284 66.3894
L302.9284 63.3894
" />
<path d="M337.6284 44.3393
L337.6284 47.3393
" />
<path d="M337.6284 47.3393
L341.0284 47.3393
" />
<path d="M341.0284 44.3393
L337.6284 44.3393
" />
<path d="M341.0284 47.3393
L341.0284 44.3393
" />
<path d="M318.3596 39.5768
L318.3596 42.5768
" />
<path d="M318.3596 42.5768
L321.7596 42.5768
" />
<path d="M321.7596 39.5768
L318.3596 39.5768
" />
<path d="M321.7596 42.5768
L321.7596 39.5768
" />
<path d="M100.6938 21.1217
L100.6938 24.1217
" />
<path d="M100.6938 24.1217
L104.0938 24.1217
" />
<path d="M104.0938 21.1217
L100.6938 21.1217
" />
<path d="M104.0938 24.1217
L104.0938 21.1217
" />
<path d="M119.7439 83.0343
L119.7439 86.0343
" />
<path d="M119.7439 86.0343
L123.1439 86.0343
" />
<path d="M123.1439 83.0343
L119.7439 83.0343
" />
<path d="M123.1439 86.0343
L123.1439 83.0343
" />
<path d="M43.5438 30.6467
L43.5438 33.6467
" />
<path d="M43.5438 33.6467
L46.9438 33.6467
" />
<path d="M46.9438 30.6467
L43.5438 30.6467
" />
<path d="M46.9438 33.6467
L46.9438 30.6467
" />
<path d="M138.7939 87.7968
L138.7939 90.7968
" />
<path d="M138.7939 90.7968
L142.1939 90.7968
" />
<path d="M142.1939 87.7968
L138.7939 87.7968
" />
<path d="M142.1939 90.7968
L142.1939 87.7968
" />
<path d="M337.6284 25.2893
L337.6284 28.2893
" />
<path d="M337.6284 28.2893
L341.0284 28.2893
" />
<path d="M341.0284 25.2893
L337.6284 25.2893
" />
<path d="M341.0284 28.2893
L341.0284 25.2893
" />
<path d="M299.5284 25.2893
L299.5284 28.2893
" />
<path d="M299.5284 28.2893
L302.9284 28.2893
" />
<path d="M302.9284 25.2893
L299.5284 25.2893
" />
<path d="M302.9284 28.2893
L302.9284 25.2893
" />
<path d="M375.7284 106.2519
L375.7284 109.2519
" />
<path d="M375.7284 109.2519
L379.1284 109.2519
" />
<path d="M379.1284 106.2519
L375.7284 106.2519
" />
<path d="M379.1284 109.2519
L379.1284 106.2519
" />
<path d="M318.5784 77.6769
L318.5784 80.6769
" />
<path d="M318.5784 80.6769
L321.9784 80.6769
" />
<path d="M321.9784 77.6769
L318.5784 77.6769
" />
<path d="M321.9784 80.6769
L321.9784 77.6769
" />
<path d="M149.6558 120.3804
L152.2539 121.8804
" />
<path d="M151.3558 117.4359
L149.6558 120.3804
" />
<path d="M152.2539 121.8804
L153.9539 118.9359
" />
<path d="M153.9539 118.9359
L151.3558 117.4359
" />
<path d="M119.7439 25.8842
L119.7439 28.8842
" />
<path d="M119.7439 28.8842
L123.1439 28.8842
" />
<path d="M123.1439 25.8842
L119.7439 25.8842
" />
<path d="M123.1439 28.8842
L123.1439 25.8842
" />
<path d="M138.7939 30.4920
L138.7939 33.4920
" />
<path d="M138.7939 33.4920
L142.1939 33.4920
" />
<path d="M142.1939 30.4920
L138.7939 30.4920
" />
<path d="M142.1939 33.4920
L142.1939 30.4920
" />
<path d="M138.7939 49.6972
L138.7939 52.6972
" />
<path d="M138.7939 52.6972
L142.1939 52.6972
" />
<path d="M142.1939 49.6972
L138.7939 49.6972
" />
<path d="M142.1939 52.6972
L142.1939 49.6972
" />
<path d="M119.7439 102.0843
L119.7439 105.0843
" />
<path d="M119.7439 105.0843
L123.1439 105.0843
" />
<path d="M123.1439 102.0843
L119.7439 102.0843
" />
<path d="M123.1439 105.0843
L123.1439 102.0843
" />
<path d="M157.8438 49.6967
L157.8438 52.6967
" />
<path d="M157.8438 52.6967
L161.2438 52.6967
" />
<path d="M161.2438 49.6967
L157.8438 49.6967
" />
<path d="M161.2438 52.6967
L161.2438 49.6967
" />
<path d="M385.2534 87.2019
L385.2534 90.2019
" />
<path d="M385.2534 90.2019
L388.6534 90.2019
" />
<path d="M388.6534 87.2019
L385.2534 87.2019
" />
<path d="M388.6534 90.2019
L388.6534 87.2019
" />
<path d="M318.5784 20.5268
L318.5784 23.5268
" />
<path d="M318.5784 23.5268
L321.9784 23.5268
" />
<path d="M321.9784 20.5268
L318.5784 20.5268
" />
<path d="M321.9784 23.5268
L321.9784 20.5268
" />
<path d="M100.6938 78.2718
L100.6938 81.2718
" />
<path d="M100.6938 81.2718
L104.0938 81.2718
" />
<path d="M104.0938 78.2718
L100.6938 78.2718
" />
<path d="M104.0938 81.2718
L104.0938 78.2718
" />
<path d="M337.6284 101.4894
L337.6284 104.4894
" />
<path d="M337.6284 104.4894
L341.0284 104.4894
" />
<path d="M341.0284 101.4894
L337.6284 101.4894
" />
<path d="M341.0284 104.4894
L341.0284 101.4894
" />
<path d="M119.7439 63.9842
L119.7439 66.9843
" />
<path d="M119.7439 66.9843
L123.1439 66.9843
" />
<path d="M123.1439 63.9842
L119.7439 63.9842
" />
<path d="M123.1439 66.9843
L123.1439 63.9842
" />
<path d="M280.4784 30.0518
L280.4784 33.0518
" />
<path d="M280.4784 33.0518
L283.8784 33.0518
" />
<path d="M283.8784 30.0518
L280.4784 30.0518
" />
<path d="M283.8784 33.0518
L283.8784 30.0518
" />
<path d="M62.5938 68.7468
L62.5938 71.7468
" />
<path d="M62.5938 71.7468
L65.9938 71.7468
" />
<path d="M65.9938 68.7468
L62.5938 68.7468
" />
<path d="M65.9938 71.7468
L65.9938 68.7468
" />
<path d="M280.4784 68.1519
L280.4784 71.1519
" />
<path d="M280.4784 71.1519
L283.8784 71.1519
" />
<path d="M283.8784 68.1519
L280.4784 68.1519
" />
<path d="M283.8784 71.1519
L283.8784 68.1519
" />
<path d="M299.5284 82.4394
L299.5284 85.4394
" />
<path d="M299.5284 85.4394
L302.9284 85.4394
" />
<path d="M302.9284 82.4394
L299.5284 82.4394
" />
<path d="M302.9284 85.4394
L302.9284 82.4394
" />
<path d="M157.8439 30.6467
L157.8439 33.6467
" />
<path d="M157.8439 33.6467
L161.2439 33.6467
" />
<path d="M161.2439 30.6467
L157.8439 30.6467
" />
<path d="M161.2439 33.6467
L161.2439 30.6467
" />
<path d="M394.7785 106.2519
L394.7785 109.2519
" />
<path d="M394.7785 109.2519
L398.1785 109.2519
" />
<path d="M398.1785 106.2519
L394.7785 106.2519
" />
<path d="M398.1785 109.2519
L398.1785 106.2519
" />
<path d="M261.4283 68.1519
L261.4283 71.1519
" />
<path d="M261.4283 71.1519
L264.8283 71.1519
" />
<path d="M264.8283 68.1519
L261.4283 68.1519
" />
<path d="M264.8283 71.1519
L264.8283 68.1519
" />
<path d="M81.6438 63.9842
L81.6438 66.9843
" />
<path d="M81.6438 66.9843
L85.0438 66.9843
" />
<path d="M85.0438 63.9842
L81.6438 63.9842
" />
<path d="M85.0438 66.9843
L85.0438 63.9842
" />
<path d="M100.6938 97.3218
L100.6938 100.3218
" />
<path d="M100.6938 100.3218
L104.0938 100.3218
" />
<path d="M104.0938 97.3218
L100.6938 97.3218
" />
<path d="M104.0938 100.3218
L104.0938 97.3218
" />
<path d="M394.7785 30.0518
L394.7785 33.0518
" />
<path d="M394.7785 33.0518
L398.1785 33.0518
" />
<path d="M398.1785 30.0518
L394.7785 30.0518
" />
<path d="M398.1785 33.0518
L398.1785 30.0518
" />
<path d="M268.1231 118.3406
L269.8231 121.2851
" />
<path d="M269.8231 121.2851
L272.4211 119.7851
" />
<path d="M270.7211 116.8406
L268.1231 118.3406
" />
<path d="M272.4211 119.7851
L270.7211 116.8406
" />
<path d="M356.6784 49.1018
L356.6784 52.1018
" />
<path d="M356.6784 52.1018
L360.0784 52.1018
" />
<path d="M360.0784 49.1018
L356.6784 49.1018
" />
<path d="M360.0784 52.1018
L360.0784 49.1018
" />
<path d="M375.7284 49.1018
L375.7284 52.1018
" />
<path d="M375.7284 52.1018
L379.1284 52.1018
" />
<path d="M379.1284 49.1018
L375.7284 49.1018
" />
<path d="M379.1284 52.1018
L379.1284 49.1018
" />
<path d="M394.7785 68.1519
L394.7785 71.1519
" />
<path d="M394.7785 71.1519
L398.1785 71.1519
" />
<path d="M398.1785 68.1519
L394.7785 68.1519
" />
<path d="M398.1785 71.1519
L398.1785 68.1519
" />
<path d="M138.7939 68.7468
L138.7939 71.7468
" />
<path d="M138.7939 71.7468
L142.1939 71.7468
" />
<path d="M142.1939 68.7468
L138.7939 68.7468
" />
<path d="M142.1939 71.7468
L142.1939 68.7468
" />
<path d="M119.7439 44.7795
L119.7439 47.7795
" />
<path d="M119.7439 47.7795
L123.1439 47.7795
" />
<path d="M123.1439 44.7795
L119.7439 44.7795
" />
<path d="M123.1439 47.7795
L123.1439 44.7795
" />
<path d="M62.5938 30.6467
L62.5938 33.6467
" />
<path d="M62.5938 33.6467
L65.9938 33.6467
" />
<path d="M65.9938 30.6467
L62.5938 30.6467
" />
<path d="M65.9938 33.6467
L65.9938 30.6467
" />
<path d="M44.1391 87.7968
L44.1391 90.7968
" />
<path d="M44.1391 90.7968
L47.5391 90.7968
" />
<path d="M47.5391 87.7968
L44.1391 87.7968
" />
<path d="M47.5391 90.7968
L47.5391 87.7968
" />
<path d="M261.4283 49.1018
L261.4283 52.1018
" />
<path d="M261.4283 52.1018
L264.8283 52.1018
" />
<path d="M264.8283 49.1018
L261.4283 49.1018
" />
<path d="M264.8283 52.1018
L264.8283 49.1018
" />
<path d="M394.7785 49.1018
L394.7785 52.1018
" />
<path d="M394.7785 52.1018
L398.1785 52.1018
" />
<path d="M398.1785 49.1018
L394.7785 49.1018
" />
<path d="M398.1785 52.1018
L398.1785 49.1018
" />
<path d="M81.6438 102.0843
L81.6438 105.0843
" />
<path d="M81.6438 105.0843
L85.0438 105.0843
" />
<path d="M85.0438 102.0843
L81.6438 102.0843
" />
<path d="M85.0438 105.0843
L85.0438 102.0843
" />
<path d="M318.5784 96.7269
L318.5784 99.7269
" />
<path d="M318.5784 99.7269
L321.9784 99.7269
" />
<path d="M321.9784 96.7269
L318.5784 96.7269
" />
<path d="M321.9784 99.7269
L321.9784 96.7269
" />
<path d="M356.6784 30.0518
L356.6784 33.0518
" />
<path d="M356.6784 33.0518
L360.0784 33.0518
" />
<path d="M360.0784 30.0518
L356.6784 30.0518
" />
<path d="M360.0784 33.0518
L360.0784 30.0518
" />
<path d="M62.5938 106.8468
L62.5938 109.8468
" />
<path d="M62.5938 109.8468
L65.9938 109.8468
" />
<path d="M65.9938 106.8468
L62.5938 106.8468
" />
<path d="M65.9938 109.8468
L65.9938 106.8468
" />
<path d="M356.6784 106.2519
L356.6784 109.2519
" />
<path d="M356.6784 109.2519
L360.0784 109.2519
" />
<path d="M360.0784 106.2519
L356.6784 106.2519
" />
<path d="M360.0784 109.2519
L360.0784 106.2519
" />
<path d="M261.4283 87.2019
L261.4283 90.2019
" />
<path d="M261.4283 90.2019
L264.8283 90.2019
" />
<path d="M264.8283 87.2019
L261.4283 87.2019
" />
<path d="M264.8283 90.2019
L264.8283 87.2019
" />
<path d="M43.5438 68.7468
L43.5438 71.7468
" />
<path d="M43.5438 71.7468
L46.9438 71.7468
" />
<path d="M46.9438 68.7468
L43.5438 68.7468
" />
<path d="M46.9438 71.7468
L46.9438 68.7468
" />
<path d="M62.5938 87.7968
L62.5938 90.7968
" />
<path d="M62.5938 90.7968
L65.9938 90.7968
" />
<path d="M65.9938 87.7968
L62.5938 87.7968
" />
<path d="M65.9938 90.7968
L65.9938 87.7968
" />
<path d="M81.6438 83.0343
L81.6438 86.0343
" />
<path d="M81.6438 86.0343
L85.0438 86.0343
" />
<path d="M85.0438 83.0343
L81.6438 83.0343
" />
<path d="M85.0438 86.0343
L85.0438 83.0343
" />
<path d="M356.6784 68.1519
L356.6784 71.1519
" />
<path d="M356.6784 71.1519
L360.0784 71.1519
" />
<path d="M360.0784 68.1519
L356.6784 68.1519
" />
<path d="M360.0784 71.1519
L360.0784 68.1519
" />
<path d="M356.6784 87.2019
L356.6784 90.2019
" />
<path d="M356.6784 90.2019
L360.0784 90.2019
" />
<path d="M360.0784 87.2019
L356.6784 87.2019
" />
<path d="M360.0784 90.2019
L360.0784 87.2019
" />
<path d="M81.6438 25.8842
L81.6438 28.8842
" />
<path d="M81.6438 28.8842
L85.0438 28.8842
" />
<path d="M85.0438 25.8842
L81.6438 25.8842
" />
<path d="M85.0438 28.8842
L85.0438 25.8842
" />
<path d="M81.6438 44.9342
L81.6438 47.9342
" />
<path d="M81.6438 47.9342
L85.0438 47.9342
" />
<path d="M85.0438 44.9342
L81.6438 44.9342
" />
<path d="M85.0438 47.9342
L85.0438 44.9342
" />
<path d="M157.8439 68.7468
L157.8439 71.7468
" />
<path d="M157.8439 71.7468
L161.2439 71.7468
" />
<path d="M161.2439 68.7468
L157.8439 68.7468
" />
<path d="M161.2439 71.7468
L161.2439 68.7468
" />
<path d="M299.5284 44.3393
L299.5284 47.3393
" />
<path d="M299.5284 47.3393
L302.9284 47.3393
" />
<path d="M302.9284 44.3393
L299.5284 44.3393
" />
<path d="M302.9284 47.3393
L302.9284 44.3393
" />
<path d="M337.6284 82.4394
L337.6284 85.4394
" />
<path d="M337.6284 85.4394
L341.0284 85.4394
" />
<path d="M341.0284 82.4394
L337.6284 82.4394
" />
<path d="M341.0284 85.4394
L341.0284 82.4394
" />
<path d="M100.6938 40.1717
L100.6938 43.1717
" />
<path d="M100.6938 43.1717
L104.0938 43.1717
" />
<path d="M104.0938 40.1717
L100.6938 40.1717
" />
<path d="M104.0938 43.1717
L104.0938 40.1717
" />
<path d="M318.5784 58.6269
L318.5784 61.6269
" />
<path d="M318.5784 61.6269
L321.9784 61.6269
" />
<path d="M321.9784 58.6269
L318.5784 58.6269
" />
<path d="M321.9784 61.6269
L321.9784 58.6269
" />
<path d="M43.5438 49.6967
L43.5438 52.6967
" />
<path d="M43.5438 52.6967
L46.9438 52.6967
" />
<path d="M46.9438 49.6967
L43.5438 49.6967
" />
<path d="M46.9438 52.6967
L46.9438 49.6967
" />
<path d="M100.6938 59.2217
L100.6938 62.2217
" />
<path d="M100.6938 62.2217
L104.0938 62.2217
" />
<path d="M104.0938 59.2217
L100.6938 59.2217
" />
<path d="M104.0938 62.2217
L104.0938 59.2217
" />
<path d="M261.0518 29.8971
L261.0518 32.8971
" />
<path d="M261.0518 32.8971
L264.4518 32.8971
" />
<path d="M264.4518 29.8971
L261.0518 29.8971
" />
<path d="M264.4518 32.8971
L264.4518 29.8971
" />
<path d="M43.5438 106.8468
L43.5438 109.8468
" />
<path d="M43.5438 109.8468
L46.9438 109.8468
" />
<path d="M46.9438 106.8468
L43.5438 106.8468
" />
<path d="M46.9438 109.8468
L46.9438 106.8468
" />
<path d="M62.5938 49.6967
L62.5938 52.6967
" />
<path d="M62.5938 52.6967
L65.9938 52.6967
" />
<path d="M65.9938 49.6967
L62.5938 49.6967
" />
<path d="M65.9938 52.6967
L65.9938 49.6967
" />
<path d="M337.6284 63.3894
L337.6284 66.3894
" />
<path d="M337.6284 66.3894
L341.0284 66.3894
" />
<path d="M341.0284 63.3894
L337.6284 63.3894
" />
<path d="M341.0284 66.3894
L341.0284 63.3894
" />
<path d="M375.7284 68.1519
L375.7284 71.1519
" />
<path d="M375.7284 71.1519
L379.1284 71.1519
" />
<path d="M379.1284 68.1519
L375.7284 68.1519
" />
<path d="M379.1284 71.1519
L379.1284 68.1519
" />
<path d="M157.8439 87.7968
L157.8439 90.7968
" />
<path d="M157.8439 90.7968
L161.2439 90.7968
" />
<path d="M161.2439 87.7968
L157.8439 87.7968
" />
<path d="M161.2439 90.7968
L161.2439 87.7968
" />
<path d="M375.7284 30.0518
L375.7284 33.0518
" />
<path d="M375.7284 33.0518
L379.1284 33.0518
" />
<path d="M379.1284 30.0518
L375.7284 30.0518
" />
<path d="M379.1284 33.0518
L379.1284 30.0518
" />
<path d="M280.4784 87.2019
L280.4784 90.2019
" />
<path d="M280.4784 90.2019
L283.8784 90.2019
" />
<path d="M283.8784 87.2019
L280.4784 87.2019
" />
<path d="M283.8784 90.2019
L283.8784 87.2019
" />
<path d="M280.4784 49.1018
L280.4784 52.1018
" />
<path d="M280.4784 52.1018
L283.8784 52.1018
" />
<path d="M283.8784 49.1018
L280.4784 49.1018
" />
<path d="M283.8784 52.1018
L283.8784 49.1018
" />
</g> 
</svg>
